<svg width="1440" height="90" viewBox="0 0 1440 90" fill="none" xmlns="http://www.w3.org/2000/svg">
<rect width="1440" height="90" fill="#00315F"/>
<mask id="mask0" style="mask-type:alpha" maskUnits="userSpaceOnUse" x="0" y="0" width="1440" height="90">
<rect width="1440" height="90" fill="#00315F"/>
</mask>
<g mask="url(#mask0)">
<path fill-rule="evenodd" clip-rule="evenodd" d="M317.667 -605.096C314.47 -614.041 306.086 -620 296.697 -620L-24.4567 -620L-24.4567 -574.807L235.096 -574.807L-38.7343 -343.603C-45.9477 -337.513 -48.6234 -327.497 -45.4269 -318.551C-42.2304 -309.606 -33.8464 -303.647 -24.4567 -303.647L235.096 -303.647L-38.7342 -72.4434C-45.9476 -66.353 -48.6234 -56.3372 -45.4269 -47.3918C-42.2304 -38.4464 -33.8464 -32.4876 -24.4566 -32.4876L235.097 -32.4877L-38.7342 198.716L-10.179 233.435L310.974 -37.7251C318.188 -43.8156 320.863 -53.8314 317.667 -62.7767C314.47 -71.7222 306.086 -77.6809 296.697 -77.6809L37.1434 -77.6809L310.974 -308.885C318.188 -314.975 320.863 -324.991 317.667 -333.936C314.47 -342.882 306.086 -348.84 296.697 -348.84L37.1434 -348.84L310.974 -580.044C318.188 -586.135 320.863 -596.15 317.667 -605.096Z" fill="#33BDDB"/>
<path fill-rule="evenodd" clip-rule="evenodd" d="M251.433 -605.096C248.237 -614.041 239.853 -620 230.463 -620L-90.6902 -620L-90.6902 -574.806L168.863 -574.806L-104.968 -343.603C-112.181 -337.512 -114.857 -327.496 -111.66 -318.551C-108.464 -309.606 -100.08 -303.647 -90.6901 -303.647L168.863 -303.647L-104.968 -72.4432C-112.181 -66.3528 -114.857 -56.3369 -111.66 -47.3916C-108.464 -38.4461 -100.08 -32.4874 -90.6901 -32.4874L168.863 -32.4874L-104.968 198.716L-76.4125 233.435L244.741 -37.7249C251.954 -43.8154 254.63 -53.8311 251.433 -62.7765C248.237 -71.7219 239.853 -77.6807 230.463 -77.6807L-29.09 -77.6806L244.741 -308.884C251.954 -314.975 254.63 -324.991 251.433 -333.936C248.237 -342.881 239.853 -348.84 230.463 -348.84L-29.09 -348.84L244.741 -580.044C251.954 -586.134 254.63 -596.15 251.433 -605.096Z" fill="#5CD0C7"/>
<path fill-rule="evenodd" clip-rule="evenodd" d="M186.661 -605.095C183.464 -614.041 175.08 -620 165.69 -620L-155.463 -619.999L-155.463 -574.806L104.09 -574.806L-169.74 -343.603C-176.954 -337.512 -179.63 -327.496 -176.433 -318.551C-173.236 -309.605 -164.853 -303.647 -155.463 -303.647L104.09 -303.647L-169.74 -72.443C-176.954 -66.3525 -179.629 -56.3367 -176.433 -47.3913C-173.236 -38.4459 -164.853 -32.4872 -155.463 -32.4872L104.09 -32.4872L-169.74 198.717L-141.185 233.435L179.968 -37.7246C187.181 -43.8151 189.857 -53.8309 186.661 -62.7762C183.464 -71.7217 175.08 -77.6804 165.69 -77.6804L-93.8627 -77.6804L179.968 -308.884C187.181 -314.975 189.857 -324.99 186.661 -333.936C183.464 -342.881 175.08 -348.84 165.69 -348.84L-93.8627 -348.84L179.968 -580.044C187.181 -586.134 189.857 -596.15 186.661 -605.095Z" fill="#54C596"/>
<path fill-rule="evenodd" clip-rule="evenodd" d="M120.427 -605.095C117.23 -614.041 108.846 -620 99.4567 -620L-221.697 -619.999L-221.697 -574.806L37.8566 -574.806L-235.974 -343.603C-243.188 -337.512 -245.863 -327.496 -242.667 -318.551C-239.47 -309.605 -231.086 -303.647 -221.697 -303.647L37.8566 -303.647L-235.974 -72.443C-243.188 -66.3525 -245.863 -56.3367 -242.667 -47.3913C-239.47 -38.4459 -231.086 -32.4872 -221.697 -32.4872L37.8567 -32.4872L-235.974 198.717L-207.419 233.435L113.734 -37.7246C120.948 -43.8151 123.623 -53.8309 120.427 -62.7762C117.23 -71.7217 108.846 -77.6804 99.4567 -77.6804L-160.096 -77.6804L113.734 -308.884C120.948 -314.975 123.623 -324.99 120.427 -333.936C117.23 -342.881 108.846 -348.84 99.4567 -348.84L-160.096 -348.84L113.734 -580.044C120.948 -586.134 123.623 -596.15 120.427 -605.095Z" fill="#0B5599"/>
</g>
</svg>
