<svg width="20" height="20" viewBox="0 0 20 20" fill="none" xmlns="http://www.w3.org/2000/svg">
<path fill-rule="evenodd" clip-rule="evenodd" d="M5.23002 7.21048C5.37328 7.07265 5.5654 6.99734 5.76416 7.00109C5.96292 7.00484 6.15206 7.08735 6.29002 7.23048L10 11.1685L13.71 7.23048C13.7775 7.15614 13.8591 7.09608 13.9502 7.05388C14.0413 7.01168 14.1399 6.98819 14.2402 6.9848C14.3405 6.98141 14.4405 6.99819 14.5342 7.03415C14.6279 7.07011 14.7135 7.12451 14.7858 7.19413C14.8581 7.26376 14.9157 7.34719 14.9551 7.43947C14.9946 7.53176 15.0151 7.63103 15.0155 7.73141C15.0159 7.83178 14.9962 7.93121 14.9574 8.02381C14.9187 8.11641 14.8618 8.20029 14.79 8.27048L10.54 12.7705C10.4701 12.8431 10.3862 12.9008 10.2934 12.9402C10.2006 12.9797 10.1008 13 10 13C9.8992 13 9.79942 12.9797 9.70664 12.9402C9.61386 12.9008 9.52998 12.8431 9.46002 12.7705L5.21002 8.27048C5.07219 8.12722 4.99687 7.9351 5.00062 7.73634C5.00437 7.53758 5.08688 7.34844 5.23002 7.21048Z" fill="#23303D"/>
</svg>
