<svg width="24" height="18" viewBox="0 0 24 18" fill="none" xmlns="http://www.w3.org/2000/svg">
<path d="M23.3684 14.6846C23.3684 16.0798 22.2373 17.2109 20.8421 17.2109H3.15791C1.76275 17.2109 0.631592 16.0798 0.631592 14.6846V3.3162C0.631592 1.92104 1.76275 0.789886 3.15791 0.789886H20.8421C22.2373 0.789886 23.3684 1.92104 23.3684 3.3162V14.6846Z" fill="#DD2E44"/>
<path d="M5.05249 4.54918L5.63922 6.2355L7.42407 6.27276L6.00112 7.35149L6.51838 9.06055L5.05249 8.04055L3.58659 9.06055L4.10386 7.35149L2.68091 6.27276L4.46575 6.2355L5.05249 4.54918Z" fill="#FFD983"/>
<path d="M8.84181 2.38703L9.05655 2.82156L9.53592 2.89103L9.18918 3.22956L9.27065 3.70703L8.84181 3.48156L8.41297 3.70703L8.49507 3.22956L8.14771 2.89103L8.62771 2.82156L8.84181 2.38703Z" fill="#FFD983"/>
<path d="M10.105 4.91242L10.3197 5.34695L10.7991 5.41642L10.4524 5.75495L10.5338 6.23242L10.105 6.00695L9.67615 6.23242L9.75826 5.75495L9.41089 5.41642L9.89089 5.34695L10.105 4.91242Z" fill="#FFD983"/>
<path d="M10.105 7.43977L10.3197 7.87429L10.7991 7.94377L10.4524 8.28229L10.5338 8.75977L10.105 8.53429L9.67615 8.75977L9.75826 8.28229L9.41089 7.94377L9.89089 7.87429L10.105 7.43977Z" fill="#FFD983"/>
<path d="M8.84181 9.96452L9.05655 10.3991L9.53592 10.4692L9.18918 10.8071L9.27065 11.2852L8.84181 11.0597L8.41297 11.2852L8.49507 10.8071L8.14771 10.4692L8.62771 10.3991L8.84181 9.96452Z" fill="#FFD983"/>
</svg>
