<svg width="33" height="32" viewBox="0 0 33 32" fill="none" xmlns="http://www.w3.org/2000/svg">
<path d="M30.0889 2.19676C27.1599 -0.732243 22.4113 -0.732243 19.4823 2.1967L13.2139 8.46508C10.1842 11.4949 10.4647 16.3224 13.2139 19.0717C13.6743 19.5321 14.1836 19.9075 14.7215 20.2158L15.8656 19.0717C16.616 18.3212 16.3518 17.4439 16.3383 16.8108C16.1736 16.6941 16.0135 16.5679 15.8656 16.42C14.4548 15.0093 14.3913 12.591 15.8656 11.1167C16.0845 10.8978 22.001 4.98133 22.1338 4.84845C23.5963 3.38601 25.9747 3.38601 27.4372 4.84845C28.8996 6.31089 28.8996 8.68933 27.4372 10.1518L23.2938 14.2951C23.4137 14.958 24.1327 16.5284 23.7628 19.1189C23.7809 19.1012 23.8025 19.0897 23.8205 19.0718L30.0889 12.8034C33.0178 9.87439 33.0178 5.12576 30.0889 2.19676Z" fill="#A8A8A8"/>
<path d="M19.843 12.4429C19.3827 11.9825 18.8733 11.6071 18.3355 11.2988L17.1914 12.4429C16.4409 13.1933 16.7051 14.0706 16.7186 14.7036C16.8834 14.8204 17.0436 14.9466 17.1914 15.0945C18.6023 16.5053 18.6657 18.9235 17.1914 20.3978C16.972 20.6172 10.5655 27.0237 10.4373 27.1519C8.97487 28.6143 6.59643 28.6143 5.13399 27.1519C3.67155 25.6895 3.67155 23.311 5.13399 21.8486L9.76319 17.2194C9.64337 16.5565 8.92425 14.9861 9.29419 12.3956C9.27612 12.4133 9.25437 12.4249 9.23637 12.4428L2.4823 19.197C-0.446575 22.126 -0.446575 26.8747 2.4823 29.8037C5.41131 32.7325 10.1599 32.7325 13.0889 29.8037L19.843 23.0495C22.8165 20.076 22.654 15.2538 19.843 12.4429Z" fill="#A8A8A8"/>
</svg>
