<svg width="24" height="24" viewBox="0 0 24 24" fill="none" xmlns="http://www.w3.org/2000/svg">
<g clip-path="url(#clip0_7720_66513)">
<path d="M18.9308 6.33577C17.6561 5.76948 16.2892 5.35227 14.8599 5.11331C14.8339 5.1087 14.8079 5.12022 14.7945 5.14327C14.6187 5.446 14.4239 5.84094 14.2876 6.15136C12.7503 5.92854 11.221 5.92854 9.71527 6.15136C9.57887 5.83404 9.37707 5.446 9.20048 5.14327C9.18707 5.12099 9.16107 5.10946 9.13504 5.11331C7.70659 5.3515 6.33963 5.76872 5.06411 6.33577C5.05307 6.34038 5.04361 6.34807 5.03732 6.35806C2.44449 10.1084 1.73421 13.7666 2.08265 17.3795C2.08423 17.3972 2.09447 17.4141 2.10867 17.4248C3.81934 18.6411 5.47642 19.3795 7.10273 19.869C7.12876 19.8767 7.15634 19.8674 7.1729 19.8467C7.55761 19.338 7.90054 18.8017 8.19456 18.2377C8.21192 18.2047 8.19535 18.1655 8.15989 18.1524C7.61594 17.9527 7.098 17.7091 6.59977 17.4325C6.56037 17.4102 6.55721 17.3556 6.59347 17.3295C6.69831 17.2535 6.80318 17.1743 6.9033 17.0944C6.92141 17.0798 6.94665 17.0767 6.96794 17.0859C10.2411 18.5328 13.7846 18.5328 17.0191 17.0859C17.0404 17.076 17.0657 17.079 17.0846 17.0936C17.1847 17.1735 17.2895 17.2535 17.3952 17.3295C17.4314 17.3556 17.4291 17.4102 17.3897 17.4325C16.8914 17.7145 16.3735 17.9527 15.8288 18.1517C15.7933 18.1647 15.7775 18.2047 15.7949 18.2377C16.0952 18.8009 16.4381 19.3373 16.8157 19.8459C16.8315 19.8674 16.8599 19.8767 16.8859 19.869C18.5201 19.3795 20.1772 18.6411 21.8879 17.4248C21.9028 17.4141 21.9123 17.3979 21.9139 17.3802C22.3309 13.2034 21.2154 9.5752 18.9568 6.35882C18.9513 6.34807 18.9419 6.34038 18.9308 6.33577ZM8.68335 15.1796C7.69792 15.1796 6.88594 14.3037 6.88594 13.228C6.88594 12.1523 7.68217 11.2764 8.68335 11.2764C9.69239 11.2764 10.4965 12.16 10.4807 13.228C10.4807 14.3037 9.68451 15.1796 8.68335 15.1796ZM15.329 15.1796C14.3435 15.1796 13.5316 14.3037 13.5316 13.228C13.5316 12.1523 14.3278 11.2764 15.329 11.2764C16.338 11.2764 17.1421 12.16 17.1264 13.228C17.1264 14.3037 16.338 15.1796 15.329 15.1796Z" fill="#4F6C86"/>
</g>
<defs>
<clipPath id="clip0_7720_66513">
<rect width="20" height="15" fill="white" transform="translate(2 5)"/>
</clipPath>
</defs>
</svg>
