<svg width="28" height="27" viewBox="0 0 28 27" fill="none" xmlns="http://www.w3.org/2000/svg">
<path d="M11.9313 11.6885C11.2799 11.6885 10.7656 12.251 10.7656 12.9372C10.7656 13.6235 11.2913 14.186 11.9313 14.186C12.5828 14.186 13.0971 13.6235 13.0971 12.9372C13.1085 12.251 12.5828 11.6885 11.9313 11.6885ZM16.1028 11.6885C15.4513 11.6885 14.9371 12.251 14.9371 12.9372C14.9371 13.6235 15.4628 14.186 16.1028 14.186C16.7542 14.186 17.2685 13.6235 17.2685 12.9372C17.2685 12.251 16.7542 11.6885 16.1028 11.6885Z" fill="#74818A"/>
<path d="M21.6571 2.25049H6.34286C5.05143 2.25049 4 3.28549 4 4.56799V19.778C4 21.0605 5.05143 22.0955 6.34286 22.0955H19.3029L18.6971 20.0142L20.16 21.353L21.5429 22.613L24 24.7505V4.56799C24 3.28549 22.9486 2.25049 21.6571 2.25049ZM17.2457 16.943C17.2457 16.943 16.8343 16.4592 16.4914 16.0317C17.9886 15.6155 18.56 14.693 18.56 14.693C18.0914 14.9967 17.6457 15.2105 17.2457 15.3567C16.6743 15.593 16.1257 15.7505 15.5886 15.8405C14.4914 16.043 13.4857 15.9867 12.6286 15.8292C11.9771 15.7055 11.4171 15.5255 10.9486 15.3455C10.6857 15.2442 10.4 15.1205 10.1143 14.963C10.08 14.9405 10.0457 14.9292 10.0114 14.9067C9.98857 14.8955 9.97714 14.8842 9.96571 14.873C9.76 14.7605 9.64572 14.6817 9.64572 14.6817C9.64572 14.6817 10.1943 15.5817 11.6457 16.0092C11.3029 16.4367 10.88 16.943 10.88 16.943C8.35429 16.8642 7.39429 15.233 7.39429 15.233C7.39429 11.6105 9.04 8.67424 9.04 8.67424C10.6857 7.45924 12.2514 7.49299 12.2514 7.49299L12.3657 7.62799C10.3086 8.21299 9.36 9.10174 9.36 9.10174C9.36 9.10174 9.61143 8.96674 10.0343 8.77549C11.2571 8.24674 12.2286 8.10049 12.6286 8.06674C12.6971 8.05549 12.7543 8.04424 12.8229 8.04424C13.52 7.95424 14.3086 7.93174 15.1314 8.02174C16.2171 8.14549 17.3829 8.46049 18.5714 9.10174C18.5714 9.10174 17.6686 8.25799 15.7257 7.67299L15.8857 7.49299C15.8857 7.49299 17.4514 7.45924 19.0971 8.67424C19.0971 8.67424 20.7429 11.6105 20.7429 15.233C20.7429 15.233 19.7714 16.8642 17.2457 16.943Z" fill="#74818A"/>
</svg>
