<svg width="24" height="24" viewBox="0 0 24 24" fill="none" xmlns="http://www.w3.org/2000/svg">
<path d="M9.93134 10.438C9.27991 10.438 8.76562 11.0005 8.76562 11.6867C8.76562 12.373 9.29134 12.9355 9.93134 12.9355C10.5828 12.9355 11.0971 12.373 11.0971 11.6867C11.1085 11.0005 10.5828 10.438 9.93134 10.438ZM14.1028 10.438C13.4513 10.438 12.9371 11.0005 12.9371 11.6867C12.9371 12.373 13.4628 12.9355 14.1028 12.9355C14.7542 12.9355 15.2685 12.373 15.2685 11.6867C15.2685 11.0005 14.7542 10.438 14.1028 10.438Z" fill="#74818A"/>
<path d="M19.6571 1H4.34286C3.05143 1 2 2.035 2 3.3175V18.5275C2 19.81 3.05143 20.845 4.34286 20.845H17.3029L16.6971 18.7637L18.16 20.1025L19.5429 21.3625L22 23.5V3.3175C22 2.035 20.9486 1 19.6571 1ZM15.2457 15.6925C15.2457 15.6925 14.8343 15.2087 14.4914 14.7812C15.9886 14.365 16.56 13.4425 16.56 13.4425C16.0914 13.7463 15.6457 13.96 15.2457 14.1062C14.6743 14.3425 14.1257 14.5 13.5886 14.59C12.4914 14.7925 11.4857 14.7362 10.6286 14.5787C9.97714 14.455 9.41714 14.275 8.94857 14.095C8.68572 13.9937 8.4 13.87 8.11429 13.7125C8.08 13.69 8.04572 13.6788 8.01143 13.6562C7.98857 13.645 7.97714 13.6337 7.96571 13.6225C7.76 13.51 7.64572 13.4312 7.64572 13.4312C7.64572 13.4312 8.19429 14.3313 9.64572 14.7587C9.30286 15.1862 8.88 15.6925 8.88 15.6925C6.35429 15.6138 5.39429 13.9825 5.39429 13.9825C5.39429 10.36 7.04 7.42375 7.04 7.42375C8.68572 6.20875 10.2514 6.2425 10.2514 6.2425L10.3657 6.3775C8.30857 6.9625 7.36 7.85125 7.36 7.85125C7.36 7.85125 7.61143 7.71625 8.03429 7.525C9.25714 6.99625 10.2286 6.85 10.6286 6.81625C10.6971 6.805 10.7543 6.79375 10.8229 6.79375C11.52 6.70375 12.3086 6.68125 13.1314 6.77125C14.2171 6.895 15.3829 7.21 16.5714 7.85125C16.5714 7.85125 15.6686 7.0075 13.7257 6.4225L13.8857 6.2425C13.8857 6.2425 15.4514 6.20875 17.0971 7.42375C17.0971 7.42375 18.7429 10.36 18.7429 13.9825C18.7429 13.9825 17.7714 15.6138 15.2457 15.6925Z" fill="#74818A"/>
</svg>
