<svg width="24" height="24" viewBox="0 0 24 24" fill="none" xmlns="http://www.w3.org/2000/svg">
<g clip-path="url(#clip0_7807_66334)">
<path fill-rule="evenodd" clip-rule="evenodd" d="M15.8926 15.246L15.8926 15.2461H13.5625L13.5625 21.8845C18.3431 21.1718 22 17.2417 22 12.4999C22 7.25322 17.5229 2.99993 12 2.99993C6.47715 2.99993 2 7.25322 2 12.4999C2 17.2417 5.65686 21.1718 10.4375 21.8845V15.2461H7.89844V15.246V12.5V12.4999H10.4375V10.407V10.407C10.4375 8.02602 11.9304 6.71087 14.2146 6.71087C15.3087 6.71087 16.4531 6.89641 16.4531 6.89641L16.4531 6.89648L16.4531 9.2343L16.4531 9.23438H15.1921C13.9499 9.23438 13.5625 9.96667 13.5625 10.718L13.5625 12.4999H16.3359L16.3359 12.5L15.8926 15.246Z" fill="#4F6C86"/>
</g>
<defs>
<clipPath id="clip0_7807_66334">
<rect width="20" height="19" fill="white" transform="translate(2 3)"/>
</clipPath>
</defs>
</svg>
