<svg width="24" height="24" viewBox="0 0 24 24" fill="none" xmlns="http://www.w3.org/2000/svg">
<path d="M12 0C5.39999 0 0 5.38799 0 12.024C0 18.024 4.39199 23.004 10.128 23.904V15.504H7.07999V12.024H10.128V9.37199C10.128 6.35999 11.916 4.70399 14.664 4.70399C15.972 4.70399 17.34 4.93199 17.34 4.93199V7.89599H15.828C14.34 7.89599 13.872 8.81999 13.872 9.76799V12.024H17.208L16.668 15.504H13.872V23.904C16.6997 23.4574 19.2746 22.0146 21.1319 19.836C22.9892 17.6575 24.0064 14.8868 24 12.024C24 5.38799 18.6 0 12 0Z" fill="#717780"/>
</svg>
