<svg width="24" height="24" viewBox="0 0 24 24" fill="none" xmlns="http://www.w3.org/2000/svg">
<path d="M12 2C10.6868 2 9.38642 2.26508 8.17317 2.7801C6.95991 3.29513 5.85752 4.05001 4.92893 5.00165C3.05357 6.92357 2 9.53026 2 12.2483C2 16.778 4.87 20.6211 8.84 21.9841C9.34 22.0661 9.5 21.7484 9.5 21.4717C9.5 21.236 9.5 20.5904 9.5 19.7398C6.73 20.3547 6.14 18.3665 6.14 18.3665C5.68 17.1777 5.03 16.86 5.03 16.86C4.12 16.2246 5.1 16.2451 5.1 16.2451C6.1 16.3168 6.63 17.3007 6.63 17.3007C7.5 18.8584 8.97 18.3972 9.54 18.1513C9.63 17.4851 9.89 17.0342 10.17 16.778C7.95 16.5218 5.62 15.6404 5.62 11.7359C5.62 10.5983 6 9.6862 6.65 8.95858C6.55 8.70237 6.2 7.63655 6.75 6.25303C6.75 6.25303 7.59 5.97633 9.5 7.29836C10.29 7.07289 11.15 6.96016 12 6.96016C12.85 6.96016 13.71 7.07289 14.5 7.29836C16.41 5.97633 17.25 6.25303 17.25 6.25303C17.8 7.63655 17.45 8.70237 17.35 8.95858C18 9.6862 18.38 10.5983 18.38 11.7359C18.38 15.6507 16.04 16.5115 13.81 16.7678C14.17 17.0855 14.5 17.7106 14.5 18.6637C14.5 20.037 14.5 21.1438 14.5 21.4717C14.5 21.7484 14.66 22.0764 15.17 21.9841C19.14 20.6109 22 16.778 22 12.2483C22 10.9024 21.7413 9.5698 21.2388 8.32643C20.7362 7.08305 19.9997 5.95329 19.0711 5.00165C18.1425 4.05001 17.0401 3.29513 15.8268 2.7801C14.6136 2.26508 13.3132 2 12 2Z" fill="white"/>
</svg>
