<svg width="24" height="24" viewBox="0 0 24 24" fill="none" xmlns="http://www.w3.org/2000/svg">
<g clip-path="url(#clip0_7720_66488)">
<path fill-rule="evenodd" clip-rule="evenodd" d="M12 2C6.47514 2 2 6.58924 2 12.255C2 16.7875 4.86679 20.6276 8.83855 21.9874C9.33579 22.0818 9.51995 21.7671 9.51995 21.4901C9.51995 21.2446 9.51381 20.6025 9.50767 19.7463C6.72683 20.3632 6.13751 18.3739 6.13751 18.3739C5.68324 17.1904 5.0264 16.8757 5.0264 16.8757C4.11786 16.2398 5.09392 16.2524 5.09392 16.2524C6.09454 16.328 6.62861 17.31 6.62861 17.31C7.51872 18.8776 8.96746 18.4243 9.53837 18.1599C9.63045 17.4989 9.88827 17.0456 10.1707 16.7875C7.94843 16.5294 5.61571 15.6481 5.61571 11.7199C5.61571 10.5993 6.00246 9.6865 6.64702 8.96884C6.54266 8.71073 6.19889 7.66572 6.74524 6.25559C6.74524 6.25559 7.58625 5.9786 9.4954 7.30689C10.2934 7.08026 11.1467 6.96695 12 6.96065C12.8471 6.96065 13.7066 7.08026 14.5046 7.30689C16.4137 5.9786 17.2548 6.25559 17.2548 6.25559C17.8011 7.66572 17.4573 8.71073 17.353 8.96884C17.9914 9.6865 18.3781 10.5993 18.3781 11.7199C18.3781 15.6607 16.0393 16.5231 13.8109 16.7812C14.167 17.096 14.4923 17.7255 14.4923 18.6824C14.4923 20.0548 14.48 21.1564 14.48 21.4964C14.48 21.7734 14.6581 22.0881 15.1676 21.9874C19.1393 20.6276 22 16.7875 22 12.2613C22 6.58923 17.5249 2 12 2Z" fill="#4F6C86"/>
</g>
<defs>
<clipPath id="clip0_7720_66488">
<rect width="20" height="20" fill="white" transform="translate(2 2)"/>
</clipPath>
</defs>
</svg>
