<svg width="116" height="40" viewBox="0 0 116 40" fill="none" xmlns="http://www.w3.org/2000/svg">
<path d="M34.8325 14.8966C35.7633 12.0264 35.2034 6.30038 33.4 4.18644C33.1636 3.90914 32.7237 3.94875 32.5273 4.25486L30.3058 7.70847C29.7568 8.39991 28.7678 8.55837 28.0225 8.0758C25.6119 6.51285 22.7322 5.60533 19.6381 5.60533C16.544 5.60533 13.6643 6.51285 11.2537 8.0758C10.512 8.55837 9.52305 8.39631 8.9704 7.70847L6.74887 4.25486C6.55253 3.94875 6.11259 3.91274 5.87625 4.18644C4.07285 6.30398 3.51292 12.03 4.44371 14.8966C4.75276 15.8509 4.83639 16.8593 4.65459 17.8388C4.4728 18.8112 4.29101 19.9852 4.29101 20.8027C4.29101 29.1972 11.1628 36 19.6345 36C28.1097 36 34.9779 29.1936 34.9779 20.8027C34.9779 19.9852 34.7961 18.8112 34.6143 17.8388C34.4362 16.8593 34.5234 15.8509 34.8325 14.8966ZM19.6345 32.6076C13.0826 32.6076 7.75601 27.3282 7.75601 20.8387C7.75601 20.6262 7.76328 20.4173 7.77419 20.2085C8.01052 15.7861 10.7229 12.0084 14.5588 10.2077C16.0967 9.48029 17.8202 9.07695 19.6381 9.07695C21.456 9.07695 23.1758 9.48029 24.7174 10.2113C28.5533 12.012 31.2657 15.7933 31.502 20.2121C31.5129 20.4209 31.5202 20.6334 31.5202 20.8423C31.5166 27.3282 26.1863 32.6076 19.6345 32.6076Z" fill="#1EB4D4"/>
<path d="M24.7829 25.3691L21.7469 20.1544L19.1436 15.8077C19.0818 15.7033 18.9691 15.6421 18.8491 15.6421H16.3622C16.2385 15.6421 16.1258 15.7069 16.064 15.8149C16.0022 15.9194 16.0058 16.049 16.0677 16.1534L18.5582 20.2985L15.2169 25.3475C15.1478 25.4519 15.1441 25.5851 15.2023 25.6932C15.2605 25.8012 15.3768 25.8696 15.5041 25.8696H18.0092C18.1256 25.8696 18.2346 25.812 18.2965 25.7148L20.1035 22.9202L21.7251 25.704C21.7869 25.8084 21.8996 25.8732 22.0196 25.8732H24.4884C24.612 25.8732 24.7247 25.8084 24.7829 25.704C24.8447 25.6032 24.8447 25.4735 24.7829 25.3691Z" fill="#1EB4D4"/>
<path d="M49.1288 12.102H52.2957V29.3017H49.1288V21.9731H45.5511V29.3053H42.3843V12.102H45.5511V19.571H49.1288V12.102Z" fill="#F8F8F8"/>
<path d="M62.0654 29.3053L61.4036 25.7328H57.6041L56.9969 29.3053H53.8301L57.3242 12.1056H61.5891L65.2504 29.3053H62.0654ZM58.0186 23.3596H60.9637L59.4512 15.1271L58.0186 23.3596Z" fill="#F8F8F8"/>
<path d="M72.3041 26.1686V22.4881C72.3041 22.1964 72.2496 22.0019 72.1405 21.9011C72.0314 21.8002 71.8278 21.7498 71.5333 21.7498H69.3045C67.4138 21.7498 66.4685 20.8423 66.4685 19.0236V14.803C66.4685 13.0023 67.4575 12.1056 69.439 12.1056H72.4677C74.4493 12.1056 75.4383 13.0059 75.4383 14.803V17.2014H72.2459V15.2387C72.2459 14.947 72.1914 14.7525 72.0823 14.6517C71.9733 14.5509 71.7696 14.5005 71.4751 14.5005H70.428C70.1153 14.5005 69.9044 14.5509 69.7954 14.6517C69.6863 14.7525 69.6317 14.947 69.6317 15.2387V18.6995C69.6317 18.9912 69.6863 19.1857 69.7954 19.2865C69.9044 19.3874 70.1153 19.4378 70.428 19.4378H72.6023C74.5293 19.4378 75.4928 20.3273 75.4928 22.1099V26.6079C75.4928 28.4085 74.4929 29.3053 72.4932 29.3053H69.519C67.5193 29.3053 66.5194 28.4049 66.5194 26.6079V24.2347H69.6826V26.1686C69.6826 26.4603 69.7372 26.6547 69.8463 26.7556C69.9553 26.8564 70.1662 26.9068 70.4789 26.9068H71.526C71.8206 26.9068 72.0205 26.8564 72.1332 26.7556C72.2459 26.6547 72.3041 26.4603 72.3041 26.1686Z" fill="#F8F8F8"/>
<path d="M83.9424 12.102H87.1056V26.6043C87.1056 28.4049 86.1058 29.3017 84.106 29.3017H80.7501C78.7504 29.3017 77.7505 28.4013 77.7505 26.6043V12.102H80.9174V26.1686C80.9174 26.4603 80.9719 26.6547 81.081 26.7556C81.19 26.8564 81.3937 26.9068 81.6882 26.9068H83.1461C83.4588 26.9068 83.6697 26.8564 83.7788 26.7556C83.8879 26.6547 83.9424 26.4603 83.9424 26.1686V12.102Z" fill="#F8F8F8"/>
<path d="M92.8869 22.5997V29.3053H89.7236V12.102H96.1082C98.108 12.102 99.1078 13.0023 99.1078 14.7994V19.8988C99.1078 21.3897 98.4388 22.2612 97.0972 22.5169L99.9877 29.3053H96.5736L93.9303 22.5997H92.8869ZM92.8869 14.5005V20.2805H95.1702C95.4647 20.2805 95.6647 20.2301 95.7774 20.1292C95.8865 20.0284 95.941 19.8339 95.941 19.5422V15.2387C95.941 14.947 95.8865 14.7525 95.7774 14.6517C95.6683 14.5509 95.4647 14.5005 95.1702 14.5005H92.8869Z" fill="#F8F8F8"/>
<path d="M108.685 29.3053L108.023 25.7328H104.224L103.616 29.3053H100.453L103.947 12.1056H108.212L111.873 29.3053H108.685ZM104.642 23.3596H107.587L106.074 15.1271L104.642 23.3596Z" fill="#F8F8F8"/>
</svg>
