<svg width="32" height="32" viewBox="0 0 32 32" fill="none" xmlns="http://www.w3.org/2000/svg">
<path d="M30.9153 10.8565C31.8317 7.99882 31.281 2.29125 29.5033 0.185353C29.2713 -0.0901848 28.8347 -0.0508223 28.642 0.252269L26.4513 3.69255C25.9085 4.3814 24.9331 4.53885 24.2016 4.05863C21.8261 2.50381 18.9864 1.59847 15.9344 1.59847C12.8824 1.59847 10.0427 2.50381 7.6672 4.05863C6.93565 4.53885 5.96027 4.37746 5.41751 3.69255L3.22682 0.252269C3.0341 -0.0508223 2.59754 -0.0901848 2.36549 0.185353C0.587765 2.29125 0.0371426 7.99882 0.953536 10.8565C1.25638 11.8052 1.3429 12.8089 1.16199 13.789C0.985 14.7574 0.804081 15.9304 0.804081 16.7412C0.804081 25.1018 7.58067 31.884 15.9344 31.884C24.2921 31.884 31.0647 25.1058 31.0647 16.7412C31.0647 15.9264 30.8877 14.7574 30.7068 13.789C30.5259 12.8089 30.6124 11.8052 30.9153 10.8565ZM15.9344 28.4988C9.47638 28.4988 4.22187 23.24 4.22187 16.7767C4.22187 16.5641 4.22974 16.3555 4.2376 16.1469C4.47359 11.7422 7.1441 7.9752 10.9277 6.18027C12.4458 5.456 14.1449 5.0545 15.9344 5.0545C17.7239 5.0545 19.423 5.45993 20.9451 6.1842C24.7286 7.97914 27.3991 11.7461 27.6351 16.1469C27.6469 16.3555 27.6509 16.5641 27.6509 16.7767C27.6469 23.24 22.3924 28.4988 15.9344 28.4988Z" fill="#A8A8A8"/>
<path d="M21.0079 21.2877L18.0148 16.0958L15.4466 11.7659C15.3876 11.6636 15.2775 11.6006 15.1555 11.6006H12.7013C12.5794 11.6006 12.4693 11.6675 12.4103 11.7698C12.3513 11.8761 12.3513 12.006 12.4142 12.1084L14.8684 16.2414L11.5726 21.272C11.5057 21.3743 11.4978 21.5081 11.5568 21.6184C11.6158 21.7286 11.7299 21.7955 11.8518 21.7955H14.3217C14.4358 21.7955 14.542 21.7364 14.6049 21.642L16.3866 18.8551L17.9834 21.6262C18.0424 21.7325 18.1564 21.7955 18.2744 21.7955H20.709C20.8309 21.7955 20.941 21.7325 21 21.6262C21.0708 21.5199 21.0708 21.394 21.0079 21.2877Z" fill="#A8A8A8"/>
</svg>
