<svg width="94" height="41" viewBox="0 0 94 41" fill="none" xmlns="http://www.w3.org/2000/svg">
<path d="M27.0893 40.3053C26.4901 40.359 25.8869 40.3879 25.2795 40.3879C14.6477 40.3879 6.0035 31.7313 6.00763 21.1037C6.00763 20.2112 6.15638 18.955 6.44976 17.3724C6.59025 16.6163 6.52827 15.794 6.27621 15.0048C5.049 11.1785 5.73078 3.93093 8.27199 0.926934C8.80089 0.294732 9.61077 -0.0482271 10.4372 0.0054894C11.2677 0.0633379 12.028 0.51373 12.4743 1.21618L14.8295 4.91435C17.9492 2.89379 21.5648 1.82772 25.296 1.82772C29.0272 1.82772 32.6427 2.89792 35.7624 4.92262L38.1177 1.22444C38.564 0.521994 39.3408 0.071602 40.1548 0.0178855C40.9771 -0.035831 41.7869 0.302996 42.32 0.931066C44.8612 3.93919 45.5347 11.1868 44.3075 15.0089C44.0513 15.8023 43.9935 16.6204 44.1298 17.3766C44.4232 18.9633 44.5719 20.2194 44.5678 21.1119C44.5678 26.2605 42.5596 31.1032 38.9152 34.7394C35.7046 37.95 31.556 39.8879 27.0934 40.297L27.0893 40.3053Z" fill="white"/>
<path d="M42.0854 14.5056C43.1142 11.3074 42.4986 4.91513 40.5069 2.55574C40.2466 2.24997 39.759 2.29129 39.5442 2.63011L37.0897 6.48118C36.4823 7.24973 35.3873 7.42741 34.5692 6.89025C31.9081 5.14653 28.7223 4.13004 25.3051 4.13004C21.8838 4.13004 18.7022 5.14239 16.037 6.88198C15.2147 7.41915 14.1239 7.24147 13.5164 6.46878L11.0661 2.61359C10.8513 2.27476 10.3637 2.22931 10.1034 2.53921C8.1076 4.8986 7.4878 11.2867 8.51667 14.4849C8.8555 15.5469 8.95054 16.6708 8.74807 17.7699C8.5456 18.8525 8.34726 20.1665 8.34726 21.0755C8.34726 30.4387 15.9337 38.0376 25.2969 38.0376C34.6642 38.0376 42.2589 30.4511 42.2589 21.0879C42.2589 20.1789 42.0606 18.8649 41.8581 17.7823C41.6556 16.6873 41.7507 15.5593 42.0936 14.5015L42.0854 14.5056Z" fill="url(#paint0_radial_5734_43430)"/>
<path d="M42.0854 14.5056C43.1142 11.3074 42.4986 4.91513 40.5069 2.55574C40.2466 2.24997 39.759 2.29129 39.5442 2.63011L37.0897 6.48118C36.4823 7.24973 35.3873 7.42741 34.5692 6.89025C31.9081 5.14653 28.7223 4.13004 25.3051 4.13004C21.8838 4.13004 18.7022 5.14239 16.037 6.88198C15.2147 7.41915 14.1239 7.24147 13.5164 6.46878L11.0661 2.61359C10.8513 2.27476 10.3637 2.22931 10.1034 2.53921C8.1076 4.8986 7.4878 11.2867 8.51667 14.4849C8.8555 15.5469 8.95054 16.6708 8.74807 17.7699C8.5456 18.8525 8.34726 20.1665 8.34726 21.0755C8.34726 30.4387 15.9337 38.0376 25.2969 38.0376C34.6642 38.0376 42.2589 30.4511 42.2589 21.0879C42.2589 20.1789 42.0606 18.8649 41.8581 17.7823C41.6556 16.6873 41.7507 15.5593 42.0936 14.5015L42.0854 14.5056Z" fill="url(#paint1_radial_5734_43430)"/>
<path d="M8.491 16.3686C6.35887 17.9966 4.52425 18.8065 3.21852 21.5171C2.87143 22.3848 2.73094 23.4633 3.18134 24.2938C3.8342 25.5045 5.41677 25.8516 6.68117 25.8971C10.6397 25.9425 13.1561 24.7525 16.722 23.0501C19.6516 21.6039 22.4862 19.8973 25.2547 18.0792C25.5191 17.9057 25.8125 17.7859 26.1224 17.7322C26.4323 17.6784 26.7464 17.6867 27.0521 17.7611C27.3579 17.8355 27.643 17.9718 27.8992 18.1619C28.1554 18.352 28.3702 18.5957 28.5355 18.8726C28.7132 19.1701 28.8248 19.5048 28.8702 19.8519C28.9157 20.199 28.8909 20.5543 28.8 20.889C28.7091 21.2279 28.5479 21.5378 28.3331 21.8063C28.1182 22.0749 27.8537 22.2939 27.5521 22.4468C24.482 24.0087 21.3458 25.4549 18.0897 26.6243C13.6313 28.2647 2.91275 31.3472 0.297173 25.5252C-0.25652 24.1409 0.0161944 22.5832 0.681453 21.3188C2.25989 18.3891 5.37958 16.7074 8.37118 15.943C8.42076 15.9347 8.47448 15.943 8.5158 15.9719C8.56125 16.0008 8.59431 16.0421 8.6067 16.0959C8.62323 16.1496 8.6191 16.2033 8.59844 16.2529C8.57778 16.3025 8.54059 16.3397 8.491 16.3644V16.3686Z" fill="url(#paint2_linear_5734_43430)"/>
<path d="M24.4073 13.2156L26.7957 17.2361C26.9196 17.4468 27.1675 17.5542 27.4072 17.5047L31.5475 16.6287C32.0929 16.513 32.4648 17.17 32.0847 17.579L29.1922 20.6863C29.027 20.864 28.9898 21.1326 29.1055 21.3475L31.312 25.4423C31.5682 25.9216 31.0806 26.4547 30.5806 26.2398L26.4692 24.4547C26.2502 24.3597 25.994 24.4093 25.8288 24.587L22.738 27.8306C22.362 28.2232 21.705 27.9215 21.7546 27.3802L22.1926 22.7482C22.2174 22.5044 22.081 22.273 21.8579 22.1739L17.982 20.4384C17.4738 20.2111 17.5564 19.4591 18.106 19.3558L22.2587 18.5501C22.4983 18.5046 22.6843 18.3104 22.7173 18.0666L23.3495 13.4346C23.4239 12.8974 24.1305 12.7528 24.4073 13.2197V13.2156Z" fill="white"/>
<path d="M55.426 10.1575L57.3836 10.1575L57.3836 20.8307L55.4394 20.8307L55.4394 16.2852L53.227 16.2852L53.227 20.8307L51.2827 20.8307L51.2827 10.1575L53.227 10.1575L53.227 14.7968L55.426 14.7968L55.426 10.1575Z" fill="white"/>
<path d="M63.3744 20.8307L62.9721 18.6183L60.639 18.6183L60.2636 20.8307L58.3193 20.8307L60.4647 10.1575L63.0928 10.1575L65.3454 20.8307L63.3744 20.8307ZM60.8938 17.1433L62.7039 17.1433L61.7787 12.0347L60.8938 17.1433Z" fill="white"/>
<path d="M69.6774 18.8865L69.6774 16.607C69.6774 16.4327 69.6371 16.312 69.5701 16.245C69.5031 16.1779 69.3824 16.1511 69.1947 16.1511L67.827 16.1511C66.6604 16.1511 66.0839 15.5879 66.0839 14.4616L66.0839 11.8335C66.0839 10.7206 66.6872 10.1575 67.9074 10.1575L69.7712 10.1575C70.9914 10.1575 71.5948 10.7206 71.5948 11.8335L71.5948 13.3219L69.6371 13.3219L69.6371 12.1017C69.6371 11.9274 69.5969 11.8067 69.5299 11.7397C69.4628 11.6726 69.3421 11.6458 69.1544 11.6458L68.5108 11.6458C68.3231 11.6458 68.189 11.6726 68.122 11.7397C68.0549 11.8067 68.0147 11.9274 68.0147 12.1017L68.0147 14.2471C68.0147 14.4214 68.0549 14.5555 68.122 14.6091C68.189 14.6762 68.3231 14.703 68.5108 14.703L69.8517 14.703C71.0316 14.703 71.6216 15.2527 71.6216 16.3656L71.6216 19.1546C71.6216 20.2675 71.0048 20.8307 69.7712 20.8307L67.9477 20.8307C66.7141 20.8307 66.0973 20.2675 66.0973 19.1546L66.0973 17.6797L68.0415 17.6797L68.0415 18.8865C68.0415 19.0608 68.0817 19.1949 68.1488 19.2485C68.2158 19.3155 68.3499 19.3424 68.5376 19.3424L69.1812 19.3424C69.3556 19.3424 69.4896 19.3155 69.5567 19.2485C69.6371 19.1814 69.6774 19.0608 69.6774 18.8865Z" fill="white"/>
<path d="M76.823 10.1575L78.7673 10.1575L78.7673 19.1546C78.7673 20.2675 78.1505 20.8307 76.9169 20.8307L74.852 20.8307C73.6184 20.8307 73.0016 20.2675 73.0016 19.1546L73.0016 10.1575L74.9458 10.1575L74.9458 18.8865C74.9458 19.0608 74.9861 19.1949 75.0531 19.2485C75.1201 19.3155 75.2408 19.3424 75.4285 19.3424L76.3269 19.3424C76.5146 19.3424 76.6487 19.3155 76.7158 19.2485C76.7828 19.1814 76.823 19.0608 76.823 18.8865L76.823 10.1575Z" fill="white"/>
<path d="M82.3219 16.674L82.3219 20.8307L80.3777 20.8307L80.3777 10.1575L84.3064 10.1575C85.54 10.1575 86.1568 10.7206 86.1568 11.8335L86.1568 14.998C86.1568 15.9232 85.7411 16.4595 84.9232 16.6204L86.6931 20.8307L84.6014 20.8307L82.9789 16.674L82.3219 16.674ZM82.3219 11.6458L82.3219 15.2259L83.7298 15.2259C83.9041 15.2259 84.0382 15.1991 84.1053 15.1321C84.1723 15.065 84.2125 14.9443 84.2125 14.77L84.2125 12.1017C84.2125 11.9274 84.1723 11.8067 84.1053 11.7397C84.0382 11.6726 83.9176 11.6458 83.7298 11.6458L82.3219 11.6458Z" fill="white"/>
<path d="M92.0289 20.8307L91.6267 18.6183L89.2936 18.6183L88.9181 20.8307L86.9739 20.8307L89.1192 10.1575L91.7473 10.1575L94 20.8307L92.0289 20.8307ZM89.5483 17.1433L91.3585 17.1433L90.4333 12.0347L89.5483 17.1433Z" fill="white"/>
<path d="M56.8724 26.7703L54.9147 26.7703L54.9147 25.1077C54.9147 24.9334 54.8745 24.8127 54.8074 24.7456C54.7404 24.6786 54.6197 24.6518 54.432 24.6518L53.6409 24.6518C53.4666 24.6518 53.3325 24.6786 53.2655 24.7456C53.1984 24.8127 53.1582 24.9334 53.1582 25.1077L53.1582 32.0399C53.1582 32.2142 53.1984 32.3483 53.2655 32.4019C53.3325 32.469 53.4532 32.4958 53.6409 32.4958L54.432 32.4958C54.6063 32.4958 54.7404 32.469 54.8074 32.4019C54.8745 32.3349 54.9147 32.2142 54.9147 32.0399L54.9147 30.4175L56.8724 30.4175L56.8724 32.241C56.8724 33.3539 56.2556 33.9171 55.022 33.9171L53.0375 33.9171C51.8039 33.9171 51.1871 33.3539 51.1871 32.241L51.1871 24.9065C51.1871 23.7936 51.8039 23.2305 53.0375 23.2305L55.022 23.2305C56.2556 23.2305 56.8724 23.7936 56.8724 24.9065L56.8724 26.7703Z" fill="white"/>
<path d="M60.0105 23.2307L62.0755 23.2307C63.3091 23.2307 63.9258 23.7939 63.9258 24.9068L63.9258 32.2279C63.9258 33.3408 63.3091 33.9039 62.0755 33.9039L60.0105 33.9039C58.777 33.9039 58.1602 33.3408 58.1602 32.2279L58.1602 24.9068C58.1736 23.7939 58.7904 23.2307 60.0105 23.2307ZM61.9816 31.9597L61.9816 25.175C61.9816 25.0006 61.9414 24.88 61.8743 24.8129C61.8073 24.7459 61.6866 24.7191 61.4989 24.7191L60.6005 24.7191C60.4128 24.7191 60.2787 24.7459 60.2117 24.8129C60.1446 24.88 60.1044 25.0006 60.1044 25.175L60.1044 31.9597C60.1044 32.134 60.1446 32.2681 60.2117 32.3217C60.2787 32.3888 60.4128 32.4156 60.6005 32.4156L61.4989 32.4156C61.6732 32.4156 61.8073 32.3888 61.8743 32.3217C61.9414 32.2547 61.9816 32.134 61.9816 31.9597Z" fill="white"/>
<path d="M69.6226 23.2307L71.3926 23.2307L71.3926 33.9039L69.569 33.9039L67.2895 26.8376L67.2895 33.9039L65.4928 33.9039L65.4928 23.2307L67.37 23.2307L69.6226 30.2032L69.6226 23.2307Z" fill="white"/>
<path d="M72.8016 23.2307L74.88 23.2307L74.88 24.4509L73.405 27.9237L72.8016 27.9237L72.8016 23.2307Z" fill="white"/>
<path d="M77.8039 25.175L77.8039 26.7706L75.8596 26.7706L75.8596 24.9068C75.8596 23.7939 76.4764 23.2307 77.71 23.2307L79.3324 23.2307C80.5794 23.2307 81.1962 23.7939 81.1962 24.9068L81.1962 26.1136C81.1962 26.9449 80.9415 27.7628 80.4319 28.5539L78.2195 32.4156L81.2499 32.4156L81.2499 33.9039L75.9267 33.9039L75.9267 32.496L78.6888 28.031C79.0777 27.4276 79.2788 26.784 79.2788 26.0733L79.2788 25.175C79.2788 25.0006 79.2386 24.88 79.1715 24.8129C79.1045 24.7459 78.9838 24.7191 78.7961 24.7191L78.3 24.7191C78.1123 24.7191 77.9782 24.7459 77.9111 24.8129C77.8441 24.8666 77.8039 25.0006 77.8039 25.175Z" fill="white"/>
<path d="M83.974 25.175L83.974 26.7706L82.0298 26.7706L82.0298 24.9068C82.0298 23.7939 82.6466 23.2307 83.8802 23.2307L85.5026 23.2307C86.7496 23.2307 87.3664 23.7939 87.3664 24.9068L87.3664 26.1136C87.3664 26.9449 87.1116 27.7628 86.6021 28.5539L84.3897 32.4156L87.42 32.4156L87.42 33.9039L82.0968 33.9039L82.0968 32.496L84.859 28.031C85.2478 27.4276 85.449 26.784 85.449 26.0733L85.449 25.175C85.449 25.0006 85.4087 24.88 85.3417 24.8129C85.2747 24.7459 85.154 24.7191 84.9663 24.7191L84.4701 24.7191C84.2824 24.7191 84.1483 24.7459 84.0813 24.8129C84.0143 24.8666 83.974 25.0006 83.974 25.175Z" fill="white"/>
<defs>
<radialGradient id="paint0_radial_5734_43430" cx="0" cy="0" r="1" gradientUnits="userSpaceOnUse" gradientTransform="translate(11.9587 37.5996) scale(51.3819)">
<stop stop-color="#5870B6"/>
<stop offset="0.34" stop-color="#62C6C5"/>
<stop offset="1" stop-color="#62C6C5"/>
</radialGradient>
<radialGradient id="paint1_radial_5734_43430" cx="0" cy="0" r="1" gradientUnits="userSpaceOnUse" gradientTransform="translate(-0.0608179 12.4815) rotate(11.631) scale(76.5975 76.8725)">
<stop stop-color="#5175F4"/>
<stop offset="0.61" stop-color="#31E4D6"/>
<stop offset="1" stop-color="#FFAB2D"/>
</radialGradient>
<linearGradient id="paint2_linear_5734_43430" x1="-0.911969" y1="14.9136" x2="18.2394" y2="23.4253" gradientUnits="userSpaceOnUse">
<stop stop-color="white"/>
<stop offset="0.12" stop-color="#1FB4D3"/>
<stop offset="0.16" stop-color="#4FB7BC"/>
<stop offset="0.2" stop-color="#7DBAA6"/>
<stop offset="0.25" stop-color="#A5BD93"/>
<stop offset="0.3" stop-color="#C5BF84"/>
<stop offset="0.35" stop-color="#DEC078"/>
<stop offset="0.4" stop-color="#F0C270"/>
<stop offset="0.46" stop-color="#FAC26B"/>
<stop offset="0.53" stop-color="#FEC36A"/>
<stop offset="0.64" stop-color="#FBB36E"/>
<stop offset="0.87" stop-color="#F58B7A"/>
<stop offset="0.94" stop-color="#F37E7E"/>
</linearGradient>
</defs>
</svg>
