<svg width="91" height="27" viewBox="0 0 91 27" fill="none" xmlns="http://www.w3.org/2000/svg">
<g clip-path="url(#clip0)">
<path d="M26.1937 9.08049C26.9694 6.68866 26.5028 1.91698 25 0.155363C24.803 -0.0757182 24.4364 -0.0427066 24.2728 0.212383L22.4215 3.09039C21.964 3.66659 21.1399 3.79864 20.5187 3.3965C18.5099 2.09404 16.1102 1.33778 13.5318 1.33778C10.9533 1.33778 8.55361 2.09404 6.54478 3.3965C5.92668 3.79864 5.10254 3.66359 4.642 3.09039L2.79072 0.212383C2.62711 -0.0427066 2.26049 -0.0727172 2.06354 0.155363C0.56071 1.91998 0.0941038 6.69166 0.869761 9.08049C1.1273 9.87577 1.19699 10.7161 1.0455 11.5324C0.894 12.3426 0.742504 13.321 0.742504 14.0022C0.742504 20.9977 6.46903 26.6667 13.5287 26.6667C20.5914 26.6667 26.3149 20.9947 26.3149 14.0022C26.3149 13.321 26.1634 12.3426 26.0119 11.5324C25.8635 10.7161 25.9362 9.87577 26.1937 9.08049ZM13.5287 23.8397C8.06883 23.8397 3.63001 19.4401 3.63001 14.0322C3.63001 13.8552 3.63607 13.6811 3.64516 13.507C3.8421 9.82175 6.10241 6.67365 9.29897 5.17312C10.5806 4.56691 12.0168 4.23079 13.5318 4.23079C15.0467 4.23079 16.4799 4.56691 17.7645 5.17612C20.9611 6.67665 23.2214 9.82776 23.4183 13.51C23.4274 13.6841 23.4335 13.8612 23.4335 14.0352C23.4305 19.4401 18.9886 23.8397 13.5287 23.8397Z" fill="#1EB4D4"/>
<path d="M17.819 17.8075L15.289 13.462L13.1196 9.83971C13.0681 9.75268 12.9742 9.70166 12.8742 9.70166H10.8017C10.6987 9.70166 10.6048 9.75568 10.5533 9.84571C10.5018 9.93274 10.5048 10.0408 10.5563 10.1278L12.6318 13.582L9.8473 17.7895C9.78973 17.8765 9.7867 17.9876 9.83518 18.0776C9.88366 18.1676 9.98062 18.2246 10.0867 18.2246H12.1743C12.2712 18.2246 12.3621 18.1766 12.4136 18.0956L13.9195 15.7668L15.2708 18.0866C15.3223 18.1736 15.4163 18.2276 15.5163 18.2276H17.5736C17.6766 18.2276 17.7705 18.1736 17.819 18.0866C17.8705 18.0026 17.8705 17.8945 17.819 17.8075Z" fill="#1EB4D4"/>
<path d="M38.1073 6.75146H40.7463V21.0845H38.1073V14.9773H35.1259V21.0875H32.4868V6.75146H35.1259V12.9756H38.1073V6.75146Z" fill="#1B2738"/>
<path d="M48.8876 21.0874L48.3362 18.1104H45.1699L44.6639 21.0874H42.0249L44.9366 6.75439H48.4907L51.5418 21.0874H48.8876ZM45.5154 16.1327H47.9696L46.7091 9.27228L45.5154 16.1327Z" fill="#1B2738"/>
<path d="M57.4201 18.4735V15.4064C57.4201 15.1633 57.3747 15.0013 57.2838 14.9173C57.1929 14.8332 57.0232 14.7912 56.7778 14.7912H54.9205C53.3449 14.7912 52.5571 14.0349 52.5571 12.5194V9.00218C52.5571 7.50166 53.3813 6.75439 55.0326 6.75439H57.5565C59.2078 6.75439 60.0319 7.50466 60.0319 9.00218V11.0009H57.3717V9.36531C57.3717 9.12223 57.3262 8.96017 57.2353 8.87614C57.1444 8.79211 56.9747 8.75009 56.7293 8.75009H55.8567C55.5961 8.75009 55.4204 8.79211 55.3295 8.87614C55.2386 8.96017 55.1932 9.12223 55.1932 9.36531V12.2493C55.1932 12.4924 55.2386 12.6545 55.3295 12.7385C55.4204 12.8225 55.5961 12.8645 55.8567 12.8645H57.6686C59.2744 12.8645 60.0774 13.6058 60.0774 15.0913V18.8396C60.0774 20.3402 59.2442 21.0874 57.5777 21.0874H55.0992C53.4328 21.0874 52.5995 20.3372 52.5995 18.8396V16.8619H55.2356V18.4735C55.2356 18.7166 55.281 18.8786 55.3719 18.9627C55.4628 19.0467 55.6386 19.0887 55.8991 19.0887H56.7717C57.0172 19.0887 57.1838 19.0467 57.2777 18.9627C57.3717 18.8786 57.4201 18.7166 57.4201 18.4735Z" fill="#1B2738"/>
<path d="M67.1184 6.75146H69.7545V18.8367C69.7545 20.3372 68.9212 21.0845 67.2548 21.0845H64.4582C62.7917 21.0845 61.9585 20.3342 61.9585 18.8367V6.75146H64.5975V18.4736C64.5975 18.7167 64.643 18.8787 64.7339 18.9627C64.8248 19.0468 64.9945 19.0888 65.2399 19.0888H66.4549C66.7154 19.0888 66.8912 19.0468 66.9821 18.9627C67.073 18.8787 67.1184 18.7167 67.1184 18.4736V6.75146Z" fill="#1B2738"/>
<path d="M74.572 15.4995V21.0875H71.936V6.75146H77.2565C78.923 6.75146 79.7562 7.50173 79.7562 8.99925V13.2487C79.7562 14.4912 79.1987 15.2174 78.0807 15.4305L80.4894 21.0875H77.6444L75.4416 15.4995H74.572ZM74.572 8.75017V13.5669H76.4748C76.7203 13.5669 76.8869 13.5248 76.9808 13.4408C77.0717 13.3568 77.1172 13.1947 77.1172 12.9516V9.36538C77.1172 9.1223 77.0717 8.96024 76.9808 8.87621C76.8899 8.79218 76.7203 8.75017 76.4748 8.75017H74.572Z" fill="#1B2738"/>
<path d="M87.7372 21.0874L87.1857 18.1104H84.0195L83.5135 21.0874H80.8774L83.7892 6.75439H87.3433L90.3944 21.0874H87.7372ZM84.3679 16.1327H86.8221L85.5617 9.27228L84.3679 16.1327Z" fill="#1B2738"/>
</g>
<defs>
<clipPath id="clip0">
<rect width="90" height="26.6667" fill="white" transform="translate(0.5)"/>
</clipPath>
</defs>
</svg>
