<svg width="133" height="58" viewBox="0 0 133 58" fill="none" xmlns="http://www.w3.org/2000/svg">
<path d="M38.3288 57.0277C37.4811 57.1037 36.6275 57.1446 35.7681 57.1446C20.7253 57.1446 8.49468 44.8964 8.50053 29.8595C8.50053 28.5966 8.711 26.8193 9.12609 24.5802C9.32487 23.5103 9.23717 22.3468 8.88054 21.2302C7.14416 15.8164 8.10882 5.56184 11.7044 1.31151C12.4527 0.417015 13.5986 -0.0682362 14.7679 0.00776691C15.943 0.0896165 17.0187 0.726874 17.6501 1.72076L20.9826 6.95329C25.3966 4.0944 30.5122 2.58603 35.7915 2.58603C41.0708 2.58603 46.1864 4.10024 50.6004 6.96498L53.9329 1.73245C54.5643 0.738566 55.6634 0.101309 56.8151 0.0253061C57.9786 -0.0506971 59.1245 0.428707 59.8786 1.31736C63.4742 5.57354 64.4271 15.8281 62.6908 21.236C62.3283 22.3585 62.2464 23.5161 62.4394 24.586C62.8545 26.831 63.0649 28.6083 63.0591 29.8712C63.0591 37.1558 60.2177 44.0078 55.0612 49.1526C50.5186 53.6952 44.6488 56.4372 38.3347 57.016L38.3288 57.0277Z" fill="#F3F5F7"/>
<path d="M59.5461 20.524C61.0019 15.9989 60.1308 6.95453 57.3128 3.61624C56.9445 3.18361 56.2546 3.24207 55.9506 3.72148L52.4778 9.17032C51.6184 10.2577 50.0691 10.5091 48.9115 9.74911C45.1465 7.28193 40.6389 5.84372 35.8039 5.84372C30.9631 5.84372 26.4614 7.27609 22.6904 9.73742C21.527 10.4975 19.9836 10.2461 19.1241 9.15278L15.6572 3.69809C15.3532 3.21869 14.6633 3.15438 14.295 3.59286C11.4712 6.93115 10.5943 15.9697 12.05 20.4948C12.5294 21.9973 12.6639 23.5875 12.3774 25.1427C12.0909 26.6744 11.8103 28.5336 11.8103 29.8198C11.8103 43.0677 22.5443 53.8193 35.7922 53.8193C49.046 53.8193 59.7917 43.0853 59.7917 29.8373C59.7917 28.5511 59.511 26.692 59.2246 25.1602C58.9381 23.6109 59.0726 22.0149 59.5578 20.5182L59.5461 20.524Z" fill="url(#paint0_radial_6350_42171)"/>
<path d="M59.5461 20.524C61.0019 15.9989 60.1308 6.95453 57.3128 3.61624C56.9445 3.18361 56.2546 3.24207 55.9506 3.72148L52.4778 9.17032C51.6184 10.2577 50.0691 10.5091 48.9115 9.74911C45.1465 7.28193 40.6389 5.84372 35.8039 5.84372C30.9631 5.84372 26.4614 7.27609 22.6904 9.73742C21.527 10.4975 19.9836 10.2461 19.1241 9.15278L15.6572 3.69809C15.3532 3.21869 14.6633 3.15438 14.295 3.59286C11.4712 6.93115 10.5943 15.9697 12.05 20.4948C12.5294 21.9973 12.6639 23.5875 12.3774 25.1427C12.0909 26.6744 11.8103 28.5336 11.8103 29.8198C11.8103 43.0677 22.5443 53.8193 35.7922 53.8193C49.046 53.8193 59.7917 43.0853 59.7917 29.8373C59.7917 28.5511 59.511 26.692 59.2246 25.1602C58.9381 23.6109 59.0726 22.0149 59.5578 20.5182L59.5461 20.524Z" fill="url(#paint1_radial_6350_42171)"/>
<path d="M12.0139 23.1597C8.99713 25.4632 6.40133 26.6091 4.55387 30.4443C4.06277 31.6721 3.864 33.198 4.50125 34.3731C5.42498 36.0861 7.66415 36.5772 9.45315 36.6415C15.054 36.7058 18.6145 35.022 23.6599 32.6133C27.805 30.5671 31.8156 28.1525 35.7327 25.5801C36.1069 25.3346 36.522 25.165 36.9604 25.089C37.3989 25.013 37.8433 25.0247 38.2759 25.1299C38.7085 25.2352 39.1119 25.4281 39.4744 25.697C39.8369 25.966 40.1409 26.3109 40.3747 26.7026C40.6261 27.1236 40.784 27.5971 40.8483 28.0882C40.9126 28.5793 40.8775 29.0821 40.7489 29.5557C40.6203 30.0351 40.3923 30.4735 40.0883 30.8536C39.7843 31.2336 39.4101 31.5434 38.9833 31.7597C34.6394 33.9697 30.202 36.0159 25.595 37.6705C19.2868 39.9915 4.12124 44.3529 0.420468 36.1153C-0.362949 34.1568 0.0229133 31.9527 0.964183 30.1637C3.19751 26.0186 7.61154 23.6391 11.8443 22.5575C11.9145 22.5458 11.9905 22.5575 12.049 22.5984C12.1133 22.6394 12.16 22.6978 12.1776 22.7738C12.201 22.8498 12.1951 22.9258 12.1659 22.996C12.1366 23.0662 12.084 23.1188 12.0139 23.1539V23.1597Z" fill="url(#paint2_linear_6350_42171)"/>
<path d="M34.5339 18.6984L37.9131 24.3869C38.0885 24.6851 38.4393 24.8371 38.7784 24.767L44.6365 23.5275C45.4082 23.3638 45.9344 24.2934 45.3965 24.8722L41.304 29.2687C41.0702 29.5201 41.0176 29.9001 41.1813 30.2041L44.3032 35.9979C44.6657 36.6761 43.9758 37.4302 43.2684 37.1262L37.4513 34.6006C37.1414 34.4661 36.7789 34.5363 36.5451 34.7877L32.172 39.3771C31.6399 39.9325 30.7104 39.5057 30.7805 38.7398L31.4002 32.186C31.4353 31.8411 31.2424 31.5137 30.9267 31.3734L25.4428 28.9179C24.7237 28.5963 24.8406 27.5323 25.6181 27.3861L31.4938 26.2461C31.8329 26.1818 32.096 25.907 32.1427 25.5621L33.0372 19.0083C33.1425 18.2482 34.1422 18.0436 34.5339 18.7042V18.6984Z" fill="white"/>
<path d="M78.4228 14.3721L81.1927 14.3721L81.1927 29.4736L78.4418 29.4736L78.4418 23.0421L75.3114 23.0421L75.3114 29.4736L72.5605 29.4736L72.5605 14.3721L75.3114 14.3721L75.3114 20.9363L78.4228 20.9363L78.4228 14.3721Z" fill="#23303D"/>
<path d="M89.6689 29.4736L89.0998 26.3432L85.7987 26.3432L85.2675 29.4736L82.5166 29.4736L85.5521 14.3721L89.2705 14.3721L92.4578 29.4736L89.6689 29.4736ZM86.1592 24.2563L88.7204 24.2563L87.4113 17.0281L86.1592 24.2563Z" fill="#23303D"/>
<path d="M98.5874 26.7227L98.5874 23.4975C98.5874 23.2508 98.5304 23.0801 98.4356 22.9852C98.3407 22.8904 98.17 22.8524 97.9044 22.8524L95.9693 22.8524C94.3187 22.8524 93.5029 22.0556 93.5029 20.462L93.5029 16.7435C93.5029 15.1689 94.3567 14.3721 96.0831 14.3721L98.7202 14.3721C100.447 14.3721 101.3 15.1689 101.3 16.7435L101.3 18.8494L98.5304 18.8494L98.5304 17.123C98.5304 16.8763 98.4735 16.7056 98.3787 16.6107C98.2838 16.5159 98.1131 16.4779 97.8475 16.4779L96.9368 16.4779C96.6712 16.4779 96.4815 16.5159 96.3866 16.6107C96.2918 16.7056 96.2349 16.8763 96.2349 17.123L96.2349 20.1584C96.2349 20.4051 96.2918 20.5948 96.3866 20.6707C96.4815 20.7655 96.6712 20.8035 96.9368 20.8035L98.834 20.8035C100.503 20.8035 101.338 21.5813 101.338 23.156L101.338 27.1021C101.338 28.6767 100.466 29.4736 98.7202 29.4736L96.14 29.4736C94.3946 29.4736 93.5219 28.6767 93.5219 27.1021L93.5219 25.0152L96.2728 25.0152L96.2728 26.7227C96.2728 26.9693 96.3297 27.159 96.4246 27.2349C96.5194 27.3298 96.7092 27.3677 96.9748 27.3677L97.8854 27.3677C98.132 27.3677 98.3217 27.3298 98.4166 27.2349C98.5304 27.14 98.5874 26.9693 98.5874 26.7227Z" fill="#23303D"/>
<path d="M108.697 14.3721L111.448 14.3721L111.448 27.1021C111.448 28.6767 110.575 29.4736 108.83 29.4736L105.908 29.4736C104.163 29.4736 103.29 28.6767 103.29 27.1021L103.29 14.3721L106.041 14.3721L106.041 26.7227C106.041 26.9693 106.098 27.159 106.193 27.2349C106.288 27.3298 106.458 27.3677 106.724 27.3677L107.995 27.3677C108.261 27.3677 108.45 27.3298 108.545 27.2349C108.64 27.14 108.697 26.9693 108.697 26.7227L108.697 14.3721Z" fill="#23303D"/>
<path d="M116.477 23.5923L116.477 29.4736L113.727 29.4736L113.727 14.3721L119.285 14.3721C121.031 14.3721 121.903 15.1689 121.903 16.7435L121.903 21.2209C121.903 22.5299 121.315 23.2888 120.158 23.5164L122.662 29.4736L119.703 29.4736L117.407 23.5923L116.477 23.5923ZM116.477 16.4779L116.477 21.5434L118.469 21.5434C118.716 21.5434 118.906 21.5054 119.001 21.4106C119.096 21.3157 119.152 21.145 119.152 20.8983L119.152 17.123C119.152 16.8763 119.096 16.7056 119.001 16.6107C118.906 16.5159 118.735 16.4779 118.469 16.4779L116.477 16.4779Z" fill="#23303D"/>
<path d="M130.212 29.4736L129.643 26.3432L126.342 26.3432L125.81 29.4736L123.06 29.4736L126.095 14.3721L129.813 14.3721L133.001 29.4736L130.212 29.4736ZM126.702 24.2563L129.263 24.2563L127.954 17.0281L126.702 24.2563Z" fill="#23303D"/>
<path d="M80.4688 37.8772L77.6989 37.8772L77.6989 35.5247C77.6989 35.2781 77.642 35.1073 77.5472 35.0125C77.4523 34.9176 77.2816 34.8797 77.016 34.8797L75.8966 34.8797C75.65 34.8797 75.4603 34.9176 75.3654 35.0125C75.2706 35.1073 75.2136 35.2781 75.2136 35.5247L75.2136 45.3331C75.2136 45.5797 75.2706 45.7694 75.3654 45.8453C75.4603 45.9402 75.631 45.9781 75.8966 45.9781L77.016 45.9781C77.2626 45.9781 77.4523 45.9402 77.5472 45.8453C77.642 45.7504 77.6989 45.5797 77.6989 45.3331L77.6989 43.0375L80.4688 43.0375L80.4688 45.6176C80.4688 47.1923 79.5961 47.9891 77.8507 47.9891L75.0429 47.9891C73.2975 47.9891 72.4248 47.1923 72.4248 45.6176L72.4248 35.2401C72.4248 33.6655 73.2975 32.8687 75.0429 32.8687L77.8507 32.8687C79.5961 32.8687 80.4688 33.6655 80.4688 35.2401L80.4688 37.8772Z" fill="#23303D"/>
<path d="M84.9091 32.8691L87.8308 32.8691C89.5762 32.8691 90.4489 33.666 90.4489 35.2406L90.4489 45.5992C90.4489 47.1738 89.5762 47.9706 87.8308 47.9706L84.9091 47.9706C83.1637 47.9706 82.291 47.1738 82.291 45.5992L82.291 35.2406C82.31 33.666 83.1827 32.8691 84.9091 32.8691ZM87.698 45.2197L87.698 35.62C87.698 35.3734 87.641 35.2027 87.5462 35.1078C87.4513 35.0129 87.2806 34.975 87.015 34.975L85.7439 34.975C85.4783 34.975 85.2886 35.0129 85.1937 35.1078C85.0988 35.2027 85.0419 35.3734 85.0419 35.62L85.0419 45.2197C85.0419 45.4664 85.0988 45.6561 85.1937 45.732C85.2886 45.8268 85.4783 45.8648 85.7439 45.8648L87.015 45.8648C87.2616 45.8648 87.4513 45.8268 87.5462 45.732C87.641 45.6371 87.698 45.4664 87.698 45.2197Z" fill="#23303D"/>
<path d="M98.5093 32.8691L101.014 32.8691L101.014 47.9706L98.4334 47.9706L95.2082 37.9725L95.2082 47.9706L92.666 47.9706L92.666 32.8691L95.3221 32.8691L98.5093 42.7344L98.5093 32.8691Z" fill="#23303D"/>
<path d="M103.007 32.8691L105.947 32.8691L105.947 34.5956L103.861 39.5092L103.007 39.5092L103.007 32.8691Z" fill="#23303D"/>
<path d="M110.085 35.62L110.085 37.8777L107.334 37.8777L107.334 35.2406C107.334 33.666 108.207 32.8691 109.952 32.8691L112.248 32.8691C114.012 32.8691 114.885 33.666 114.885 35.2406L114.885 36.9481C114.885 38.1243 114.524 39.2816 113.803 40.4009L110.673 45.8648L114.961 45.8648L114.961 47.9706L107.429 47.9706L107.429 45.9786L111.337 39.661C111.887 38.8073 112.172 37.8966 112.172 36.8911L112.172 35.62C112.172 35.3734 112.115 35.2027 112.02 35.1078C111.925 35.0129 111.754 34.975 111.489 34.975L110.787 34.975C110.521 34.975 110.332 35.0129 110.237 35.1078C110.142 35.1837 110.085 35.3734 110.085 35.62Z" fill="#23303D"/>
<path d="M118.815 35.62L118.815 37.8777L116.064 37.8777L116.064 35.2406C116.064 33.666 116.937 32.8691 118.683 32.8691L120.978 32.8691C122.743 32.8691 123.615 33.666 123.615 35.2406L123.615 36.9481C123.615 38.1243 123.255 39.2816 122.534 40.4009L119.403 45.8648L123.691 45.8648L123.691 47.9706L116.159 47.9706L116.159 45.9786L120.067 39.661C120.618 38.8073 120.902 37.8966 120.902 36.8911L120.902 35.62C120.902 35.3734 120.845 35.2027 120.75 35.1078C120.656 35.0129 120.485 34.975 120.219 34.975L119.517 34.975C119.252 34.975 119.062 35.0129 118.967 35.1078C118.872 35.1837 118.815 35.3734 118.815 35.62Z" fill="#23303D"/>
<defs>
<radialGradient id="paint0_radial_6350_42171" cx="0" cy="0" r="1" gradientUnits="userSpaceOnUse" gradientTransform="translate(16.9201 53.1995) scale(72.6999)">
<stop stop-color="#5870B6"/>
<stop offset="0.34" stop-color="#62C6C5"/>
<stop offset="1" stop-color="#62C6C5"/>
</radialGradient>
<radialGradient id="paint1_radial_6350_42171" cx="0" cy="0" r="1" gradientUnits="userSpaceOnUse" gradientTransform="translate(-0.0862337 17.6602) rotate(11.631) scale(108.377 108.766)">
<stop stop-color="#5175F4"/>
<stop offset="0.61" stop-color="#31E4D6"/>
<stop offset="1" stop-color="#FFAB2D"/>
</radialGradient>
<linearGradient id="paint2_linear_6350_42171" x1="-1.29034" y1="21.1011" x2="25.8068" y2="33.1442" gradientUnits="userSpaceOnUse">
<stop stop-color="white"/>
<stop offset="0.12" stop-color="#1FB4D3"/>
<stop offset="0.16" stop-color="#4FB7BC"/>
<stop offset="0.2" stop-color="#7DBAA6"/>
<stop offset="0.25" stop-color="#A5BD93"/>
<stop offset="0.3" stop-color="#C5BF84"/>
<stop offset="0.35" stop-color="#DEC078"/>
<stop offset="0.4" stop-color="#F0C270"/>
<stop offset="0.46" stop-color="#FAC26B"/>
<stop offset="0.53" stop-color="#FEC36A"/>
<stop offset="0.64" stop-color="#FBB36E"/>
<stop offset="0.87" stop-color="#F58B7A"/>
<stop offset="0.94" stop-color="#F37E7E"/>
</linearGradient>
</defs>
</svg>
