<svg width="125" height="38" viewBox="0 0 125 38" fill="none" xmlns="http://www.w3.org/2000/svg">
<path d="M35.9002 12.9397C36.984 9.53133 36.3321 2.7317 34.2322 0.221392C33.9571 -0.107898 33.4448 -0.060857 33.2162 0.302646L30.6295 4.40381C29.9903 5.2249 28.8388 5.41306 27.9709 4.84001C25.1641 2.98401 21.8111 1.90633 18.2084 1.90633C14.6057 1.90633 11.2528 2.98401 8.44599 4.84001C7.58236 5.41306 6.43084 5.22062 5.78735 4.40381L3.20068 0.302646C2.97207 -0.060857 2.45982 -0.103622 2.18464 0.221392C0.084826 2.73597 -0.567133 9.53561 0.516643 12.9397C0.876491 14.073 0.973861 15.2704 0.762186 16.4336C0.550511 17.5883 0.338836 18.9824 0.338836 19.9532C0.338836 29.9217 8.34015 38 18.2042 38C28.0725 38 36.0696 29.9174 36.0696 19.9532C36.0696 18.9824 35.8579 17.5883 35.6462 16.4336C35.4388 15.2704 35.5404 14.073 35.9002 12.9397ZM18.2042 33.9715C10.5754 33.9715 4.37336 27.7022 4.37336 19.9959C4.37336 19.7436 4.38183 19.4956 4.39453 19.2475C4.66971 13.996 7.8279 9.50995 12.2942 7.3717C14.085 6.50785 16.0917 6.02888 18.2084 6.02888C20.3252 6.02888 22.3276 6.50785 24.1226 7.37598C28.589 9.51423 31.7472 14.0046 32.0224 19.2518C32.0351 19.4999 32.0435 19.7522 32.0435 20.0002C32.0393 27.7022 25.833 33.9715 18.2042 33.9715Z" fill="#3970FD"/>
<path d="M24.1973 25.377L20.6623 19.1846L17.6311 14.0229C17.5592 13.8989 17.4279 13.8262 17.2882 13.8262H14.3925C14.2486 13.8262 14.1173 13.9031 14.0454 14.0314C13.9734 14.1555 13.9776 14.3094 14.0496 14.4334L16.9495 19.3557L13.0589 25.3513C12.9785 25.4754 12.9743 25.6336 13.042 25.7619C13.1097 25.8902 13.2452 25.9714 13.3934 25.9714H16.3103C16.4457 25.9714 16.5728 25.903 16.6447 25.7875L18.7488 22.469L20.6369 25.7747C20.7089 25.8987 20.8401 25.9757 20.9798 25.9757H23.8544C23.9983 25.9757 24.1296 25.8987 24.1973 25.7747C24.2693 25.655 24.2693 25.501 24.1973 25.377Z" fill="#3970FD"/>
<path d="M51.4103 9.49902H55.1048V29.7615H51.4103V21.1279H47.2365V29.7658H43.542V9.49902H47.2365V18.2981H51.4103V9.49902Z" fill="#fff"/>
<path d="M66.5019 29.7664L65.7299 25.5578H61.2974L60.589 29.7664H56.8945L60.9708 9.50391H65.9463L70.2176 29.7664H66.5019ZM61.7809 22.7619H65.2167L63.4522 13.0634L61.7809 22.7619Z" fill="#fff"/>
<path d="M78.4466 26.0711V21.7352C78.4466 21.3916 78.3829 21.1625 78.2557 21.0437C78.1284 20.9249 77.8909 20.8655 77.5473 20.8655H74.9472C72.7415 20.8655 71.6387 19.7964 71.6387 17.6539V12.6816C71.6387 10.5603 72.7924 9.50391 75.1041 9.50391H78.6374C80.9492 9.50391 82.1029 10.5645 82.1029 12.6816V15.5071H78.3787V13.1949C78.3787 12.8513 78.3151 12.6222 78.1878 12.5034C78.0606 12.3846 77.823 12.3252 77.4795 12.3252H76.2579C75.8931 12.3252 75.6471 12.3846 75.5198 12.5034C75.3926 12.6222 75.3289 12.8513 75.3289 13.1949V17.272C75.3289 17.6157 75.3926 17.8448 75.5198 17.9636C75.6471 18.0824 75.8931 18.1418 76.2579 18.1418H78.7944C81.0425 18.1418 82.1665 19.1897 82.1665 21.2898V26.5887C82.1665 28.71 81.0001 29.7664 78.6671 29.7664H75.1974C72.8645 29.7664 71.6981 28.7058 71.6981 26.5887V23.7929H75.3883V26.0711C75.3883 26.4148 75.4519 26.6439 75.5792 26.7627C75.7064 26.8815 75.9525 26.9408 76.3172 26.9408H77.5388C77.8824 26.9408 78.1157 26.8815 78.2472 26.7627C78.3787 26.6439 78.4466 26.4148 78.4466 26.0711Z" fill="#fff"/>
<path d="M92.0248 9.49902H95.7151V26.5838C95.7151 28.7051 94.5486 29.7615 92.2157 29.7615H88.3007C85.9677 29.7615 84.8013 28.7009 84.8013 26.5838V9.49902H88.4958V26.0705C88.4958 26.4141 88.5594 26.6432 88.6866 26.762C88.8139 26.8808 89.0514 26.9402 89.395 26.9402H91.0959C91.4607 26.9402 91.7067 26.8808 91.834 26.762C91.9612 26.6432 92.0248 26.4141 92.0248 26.0705V9.49902Z" fill="#fff"/>
<path d="M102.459 21.8661V29.7658H98.7686V9.49902H106.217C108.55 9.49902 109.716 10.5597 109.716 12.6767V18.6842C109.716 20.4406 108.936 21.4673 107.371 21.7685L110.743 29.7658H106.76L103.676 21.8661H102.459ZM102.459 12.3246V19.1339H105.123C105.466 19.1339 105.699 19.0745 105.831 18.9557C105.958 18.8369 106.022 18.6078 106.022 18.2642V13.1943C106.022 12.8507 105.958 12.6216 105.831 12.5028C105.704 12.384 105.466 12.3246 105.123 12.3246H102.459Z" fill="#fff"/>
<path d="M120.89 29.7664L120.118 25.5578H115.685L114.977 29.7664H111.287L115.363 9.50391H120.338L124.61 29.7664H120.89ZM116.173 22.7619H119.609L117.844 13.0634L116.173 22.7619Z" fill="#fff"/>
</svg>
