<svg width="24" height="24" viewBox="0 0 24 24" fill="none" xmlns="http://www.w3.org/2000/svg">
<path d="M12 3.75C12.6962 3.75 13.3639 4.02656 13.8562 4.51884C14.3484 5.01113 14.625 5.67881 14.625 6.375C14.625 7.07119 14.3484 7.73887 13.8562 8.23116C13.3639 8.72344 12.6962 9 12 9C11.3038 9 10.6361 8.72344 10.1438 8.23116C9.65156 7.73887 9.375 7.07119 9.375 6.375C9.375 5.67881 9.65156 5.01113 10.1438 4.51884C10.6361 4.02656 11.3038 3.75 12 3.75V3.75ZM6.75 5.625C7.17 5.625 7.56 5.7375 7.8975 5.94C7.785 7.0125 8.1 8.0775 8.745 8.91C8.37 9.63 7.62 10.125 6.75 10.125C6.15326 10.125 5.58097 9.88795 5.15901 9.46599C4.73705 9.04403 4.5 8.47174 4.5 7.875C4.5 7.27826 4.73705 6.70597 5.15901 6.28401C5.58097 5.86205 6.15326 5.625 6.75 5.625V5.625ZM17.25 5.625C17.8467 5.625 18.419 5.86205 18.841 6.28401C19.2629 6.70597 19.5 7.27826 19.5 7.875C19.5 8.47174 19.2629 9.04403 18.841 9.46599C18.419 9.88795 17.8467 10.125 17.25 10.125C16.38 10.125 15.63 9.63 15.255 8.91C15.9 8.0775 16.215 7.0125 16.1025 5.94C16.44 5.7375 16.83 5.625 17.25 5.625ZM7.125 13.3125C7.125 11.76 9.3075 10.5 12 10.5C14.6925 10.5 16.875 11.76 16.875 13.3125V14.625H7.125V13.3125ZM3 14.625V13.5C3 12.4575 4.4175 11.58 6.3375 11.325C5.895 11.835 5.625 12.54 5.625 13.3125V14.625H3ZM21 14.625H18.375V13.3125C18.375 12.54 18.105 11.835 17.6625 11.325C19.5825 11.58 21 12.4575 21 13.5V14.625Z" fill="#0B5599"/>
</svg>
