<svg width="24" height="24" viewBox="0 0 24 24" fill="none" xmlns="http://www.w3.org/2000/svg">
<path d="M11.9602 5.43283C11.7513 5.31887 11.4987 5.31887 11.2898 5.43283L4.50163 9.13547C4.01523 9.40078 4.01523 10.0992 4.50163 10.3645L11.2898 14.0671C11.4987 14.1811 11.7513 14.1811 11.9602 14.0671L17.3398 11.1323C17.8062 10.8778 18.375 11.2154 18.375 11.7468V15.05C18.375 15.4366 18.6884 15.75 19.075 15.75H19.175C19.5616 15.75 19.875 15.4366 19.875 15.05V10.1655C19.875 9.90938 19.7351 9.67368 19.5102 9.55102L11.9602 5.43283ZM7.41032 13.45C6.94385 13.1954 6.375 13.533 6.375 14.0644V15.4696C6.375 15.7257 6.51487 15.9613 6.73968 16.084L11.2897 18.567C11.4987 18.6811 11.7513 18.6811 11.9603 18.567L16.5103 16.084C16.7351 15.9613 16.875 15.7257 16.875 15.4696V14.0644C16.875 13.533 16.3061 13.1954 15.8397 13.45L11.9603 15.567C11.7513 15.6811 11.4987 15.6811 11.2897 15.567L7.41032 13.45Z" fill="#0B5599"/>
</svg>
