<svg width="24" height="24" viewBox="0 0 24 24" fill="none" xmlns="http://www.w3.org/2000/svg">
<path d="M19.7588 9.12933C20.2647 7.51484 19.9604 4.29396 18.9802 3.10487C18.8517 2.94889 18.6126 2.97117 18.5059 3.14336L17.2984 5.08602C17 5.47495 16.4624 5.56408 16.0573 5.29264C14.747 4.41348 13.1818 3.903 11.5 3.903C9.8182 3.903 8.25299 4.41348 6.94273 5.29264C6.53957 5.56408 6.00202 5.47293 5.70163 5.08602L4.49413 3.14336C4.38741 2.97117 4.14828 2.95092 4.01983 3.10487C3.0396 4.29599 2.73525 7.51687 3.24118 9.12933C3.40916 9.66615 3.45461 10.2333 3.3558 10.7843C3.25699 11.3313 3.15817 11.9917 3.15817 12.4515C3.15817 17.1734 6.89332 21 11.498 21C16.1047 21 19.8379 17.1714 19.8379 12.4515C19.8379 11.9917 19.7391 11.3313 19.6402 10.7843C19.5434 10.2333 19.5908 9.66615 19.7588 9.12933Z" stroke="#1699E2" stroke-width="1.5" stroke-linecap="round" stroke-linejoin="round"/>
<path d="M14.5 15L10.5 9" stroke="#1699E2" stroke-width="1.5" stroke-linecap="round" stroke-linejoin="round"/>
<path d="M9.5 15.0003L12 11.667" stroke="#1699E2" stroke-width="1.5" stroke-linecap="round" stroke-linejoin="round"/>
</svg>
