<svg width="24" height="24" viewBox="0 0 24 24" fill="none" xmlns="http://www.w3.org/2000/svg">
<path fill-rule="evenodd" clip-rule="evenodd" d="M20.5 12C20.5 12.5004 20.4568 12.9907 20.3738 13.4673L17.9896 12.8285C17.9747 12.8245 17.9597 12.8209 17.9447 12.8179C17.9812 12.5505 18 12.2774 18 12C18 11.7226 17.9812 11.4495 17.9447 11.1821C17.9597 11.1791 17.9747 11.1755 17.9896 11.1715L20.3738 10.5327C20.4568 11.0093 20.5 11.4996 20.5 12ZM17.6014 14.2774L19.9865 14.9164C19.1287 17.2648 17.2647 19.1287 14.9164 19.9865L14.2773 17.6014C14.2734 17.5868 14.269 17.5723 14.2643 17.5581C15.7569 16.9494 16.9493 15.7569 17.558 14.2643C17.5723 14.2691 17.5867 14.2734 17.6014 14.2774ZM12.8284 17.9897L13.4672 20.3738C12.9906 20.4568 12.5004 20.5 12 20.5C11.4996 20.5 11.0093 20.4568 10.5326 20.3738L11.1715 17.9897C11.1755 17.9747 11.179 17.9597 11.1821 17.9447C11.4495 17.9812 11.7226 18 12 18C12.2774 18 12.5504 17.9812 12.8178 17.9447C12.8209 17.9597 12.8244 17.9747 12.8284 17.9897ZM4.01352 14.9164C4.87128 17.2647 6.73523 19.1287 9.08352 19.9865L9.72258 17.6014C9.72652 17.5867 9.73087 17.5723 9.73561 17.558C8.24307 16.9493 7.05064 15.7569 6.44196 14.2643C6.42771 14.2691 6.41323 14.2734 6.39853 14.2774L4.01352 14.9164ZM6.05528 12.8179C6.01883 12.5505 6 12.2774 6 12C6 11.7226 6.01883 11.4495 6.05528 11.1821C6.04028 11.1791 6.02529 11.1755 6.0103 11.1715L3.62618 10.5327C3.54324 11.0093 3.5 11.4996 3.5 12C3.5 12.5004 3.54324 12.9907 3.62618 13.4673L6.0103 12.8285C6.02529 12.8245 6.04028 12.8209 6.05528 12.8179ZM10.5327 3.62617C11.0094 3.54324 11.4996 3.5 12 3.5C12.5004 3.5 12.9906 3.54324 13.4673 3.62617L12.8284 6.01033C12.8244 6.0253 12.8209 6.04029 12.8179 6.05527C12.5504 6.01883 12.2774 6 12 6C11.7226 6 11.4496 6.01883 11.1821 6.05527C11.1791 6.04029 11.1756 6.0253 11.1716 6.01033L10.5327 3.62617ZM14.2643 6.44195C15.7569 7.05064 16.9493 8.24308 17.558 9.73566C17.5723 9.73092 17.5867 9.72657 17.6014 9.72264L19.9865 9.08356C19.1287 6.73524 17.2647 4.87128 14.9164 4.01352L14.2773 6.39856C14.2734 6.41325 14.2691 6.42771 14.2643 6.44195ZM9.0836 4.01352C6.73527 4.87128 4.87129 6.73525 4.01352 9.08358L6.39853 9.72264C6.41323 9.72658 6.42771 9.73092 6.44196 9.73567C7.05065 8.24309 8.24311 7.05064 9.73569 6.44195C9.73095 6.42772 9.7266 6.41325 9.72267 6.39856L9.0836 4.01352ZM22 12C22 17.5228 17.5228 22 12 22C6.47715 22 2 17.5228 2 12C2 6.47715 6.47715 2 12 2C17.5228 2 22 6.47715 22 12ZM16.5 12C16.5 14.4853 14.4853 16.5 12 16.5C9.51472 16.5 7.5 14.4853 7.5 12C7.5 9.51472 9.51472 7.5 12 7.5C14.4853 7.5 16.5 9.51472 16.5 12Z" fill="#1699E2"/>
</svg>
