<svg width="24" height="24" viewBox="0 0 24 24" fill="none" xmlns="http://www.w3.org/2000/svg">
<path d="M16.8106 14.336C16.9678 14.174 17.2278 14.1741 17.3849 14.3362L18.5311 15.519C18.6813 15.674 18.6814 15.9203 18.5313 16.0755L13.885 20.8781C13.8097 20.956 13.7059 21 13.5975 21H12.4561C12.2352 21 12.0561 20.8209 12.0561 20.6V19.3965C12.0561 19.2925 12.0966 19.1925 12.169 19.1179L16.8106 14.336ZM18.7341 12.54C18.8504 12.54 18.9584 12.5914 19.0498 12.6857L20.1129 13.7829C20.2957 13.9629 20.2957 14.2629 20.1129 14.4429L19.5696 15.0036C19.4124 15.1658 19.1523 15.1658 18.9951 15.0036L17.8493 13.8212C17.699 13.6661 17.699 13.4196 17.8493 13.2645L18.4102 12.6857C18.5016 12.5914 18.6179 12.54 18.7341 12.54ZM18.7009 8.6C18.7009 8.82091 18.5218 9 18.3009 9H14.1173C13.8964 9 13.7173 9.17909 13.7173 9.4V14.838C13.7173 14.9419 13.6768 15.0417 13.6045 15.1163L12.7433 16.0051C12.4932 16.2632 12.0561 16.0861 12.0561 15.7267V15.4C12.0561 15.1791 11.877 15 11.6561 15H10.7949C10.5739 15 10.3949 15.1791 10.3949 15.4V19.7429C10.3949 19.9638 10.2158 20.1429 9.99485 20.1429H9.13364C8.91273 20.1429 8.73364 19.9638 8.73364 19.7429V9.4C8.73364 9.17909 8.55455 9 8.33364 9H4.15C3.92909 9 3.75 8.82091 3.75 8.6V7.68571C3.75 7.4648 3.92909 7.28571 4.15 7.28571H18.3009C18.5218 7.28571 18.7009 7.4648 18.7009 7.68571V8.6ZM11.2255 3C12.1391 3 12.8867 3.77143 12.8867 4.71429C12.8867 5.65714 12.1391 6.42857 11.2255 6.42857C10.3118 6.42857 9.56425 5.65714 9.56425 4.71429C9.56425 3.77143 10.3118 3 11.2255 3Z" fill="#0B5599"/>
</svg>
