<svg width="24" height="24" viewBox="0 0 24 24" fill="none" xmlns="http://www.w3.org/2000/svg">
<path fill-rule="evenodd" clip-rule="evenodd" d="M12.1662 5.60692L12.3375 5.63028L12.5088 5.60692L16.4653 12.4312C16.3844 12.532 16.3185 12.6424 16.2685 12.76H8.40652C8.35654 12.6424 8.29058 12.532 8.20967 12.4312L12.1662 5.60692ZM16.8375 12.475L12.6675 5.2825L12.3375 5.3275L12.0078 5.28254L12.0079 5.2824L12.3379 5.3274L12.6679 5.2824L16.8379 12.4749C16.6579 12.6324 16.5379 12.8349 16.4854 13.0599H16.485C16.5375 12.8349 16.6575 12.6325 16.8375 12.475ZM10.8164 16.2739L10.7775 16.516V16.54C10.7775 16.9537 10.9419 17.3505 11.2344 17.6431C11.527 17.9356 11.9238 18.1 12.3375 18.1C12.7512 18.1 13.148 17.9356 13.4406 17.6431C13.7331 17.3505 13.8975 16.9537 13.8975 16.54V16.516L13.8586 16.2739L16.7099 14.583C16.9807 14.8095 17.3271 14.9425 17.7075 14.9425C18.1212 14.9425 18.518 14.7781 18.8106 14.4856C19.1031 14.193 19.2675 13.7962 19.2675 13.3825C19.2675 12.7352 18.8819 12.1802 18.3225 11.9392V8.55995C18.9615 8.36056 19.425 7.76475 19.425 7.06C19.425 6.64626 19.2606 6.24947 18.9681 5.95691C18.6755 5.66436 18.2787 5.5 17.865 5.5C17.4511 5.5 17.08 5.65915 16.802 5.91588L13.8765 4.23751L13.8975 4.07991V4.06C13.8975 3.19681 13.2007 2.5 12.3375 2.5C11.4743 2.5 10.7775 3.19681 10.7775 4.06V4.07991L10.7985 4.23751L7.87298 5.91588C7.59496 5.65915 7.22387 5.5 6.81 5.5C6.39626 5.5 5.99947 5.66436 5.70691 5.95691C5.41436 6.24947 5.25 6.64626 5.25 7.06C5.25 7.76475 5.71348 8.36056 6.3525 8.55995V11.9392C5.79309 12.1802 5.4075 12.7352 5.4075 13.3825C5.4075 13.7962 5.57186 14.193 5.86441 14.4856C6.15697 14.7781 6.55376 14.9425 6.9675 14.9425C7.34792 14.9425 7.69425 14.8095 7.96507 14.583L10.8164 16.2739ZM12.6411 17.7629C12.5427 17.7873 12.4409 17.7999 12.3379 17.7999C12.0037 17.7999 11.6832 17.6672 11.4469 17.4309C11.2106 17.1946 11.0779 16.8741 11.0779 16.5399L11.1454 16.1199L7.92038 14.2074C7.92032 14.2075 7.92026 14.2075 7.9202 14.2076L11.145 16.12L11.0775 16.54C11.0775 16.8742 11.2102 17.1947 11.4465 17.431C11.6828 17.6673 12.0033 17.8 12.3375 17.8C12.4407 17.8 12.5426 17.7873 12.6411 17.7629ZM7.27428 14.6057C7.17646 14.6297 7.0739 14.6424 6.96788 14.6424C6.63371 14.6424 6.31322 14.5097 6.07693 14.2734C5.84063 14.0371 5.70788 13.7166 5.70788 13.3824C5.70788 12.7899 6.10538 12.2949 6.65288 12.1524V8.3199C6.03038 8.2374 5.55038 7.7049 5.55038 7.0599C5.55038 6.72573 5.68313 6.40525 5.91943 6.16895C6.08276 6.00562 6.28631 5.89176 6.5068 5.83702C6.28616 5.89173 6.08247 6.00562 5.91905 6.16905C5.68275 6.40534 5.55 6.72583 5.55 7.06C5.55 7.705 6.03 8.2375 6.6525 8.32V12.1525C6.105 12.295 5.7075 12.79 5.7075 13.3825C5.7075 13.7167 5.84025 14.0372 6.07655 14.2735C6.31284 14.5098 6.63333 14.6425 6.9675 14.6425C7.07365 14.6425 7.17634 14.6298 7.27428 14.6057ZM7.81532 6.29482C7.81534 6.29485 7.81536 6.29488 7.81538 6.2949L11.1229 4.3974L11.0779 4.0599C11.0779 3.46737 11.4838 2.97226 12.0336 2.83667C11.4836 2.97213 11.0775 3.46733 11.0775 4.06L11.1225 4.3975L7.81532 6.29482ZM17.7075 14.6425C17.325 14.6425 16.9876 14.4775 16.7551 14.2076L16.7554 14.2074C16.9879 14.4774 17.3254 14.6424 17.7079 14.6424C17.8109 14.6424 17.9127 14.6298 18.0111 14.6054C17.9126 14.6298 17.8107 14.6425 17.7075 14.6425ZM18.0229 8.31995C18.0626 8.31467 18.1017 8.30757 18.1402 8.29872C18.1017 8.30756 18.0626 8.31464 18.0229 8.3199V8.31995ZM17.5534 5.83841C17.273 5.90916 17.0318 6.07336 16.8602 6.29478L16.8604 6.2949C17.032 6.07347 17.2731 5.90924 17.5534 5.83841ZM8.3775 7.06V7.04752L8.37732 7.04531L10.6295 5.75405L7.59861 11.0568L7.58357 8.4243C8.05662 8.1546 8.3775 7.64431 8.3775 7.06ZM11.4374 4.94518L7.30538 12.1743L7.30538 12.1749L11.4379 4.9449L11.4374 4.94518ZM14.0455 5.75405L16.2977 7.04531L16.2975 7.04752V7.06C16.2975 7.64431 16.6184 8.1546 17.0914 8.4243L17.0764 11.0568L14.0455 5.75405ZM17.37 12.1742L17.3925 8.2375C16.9275 8.05 16.5975 7.5925 16.5975 7.06L16.6125 6.88L13.2382 4.94537L13.2379 4.9449L16.6129 6.8799L16.5979 7.0599C16.5979 7.5924 16.9279 8.0499 17.3929 8.2374L17.3704 12.1749L17.37 12.1742ZM12.3375 14.9725C12.0223 14.9725 11.7215 15.0657 11.4736 15.2324L9.38456 13.9975H15.2904L13.2014 15.2324C12.9535 15.0657 12.6527 14.9725 12.3375 14.9725ZM11.4977 15.5948L11.4979 15.5949C11.6431 15.4597 11.8251 15.3612 12.0261 15.3108C11.8251 15.3612 11.643 15.4596 11.4977 15.5948ZM13.1778 15.5948L16.3875 13.6975H8.28804L8.28788 13.6974H16.3879L13.1779 15.5949C13.1779 15.5949 13.1778 15.5949 13.1778 15.5948Z" fill="#0B5599"/>
</svg>
