<svg width="24" height="24" viewBox="0 0 24 24" fill="none" xmlns="http://www.w3.org/2000/svg">
<circle cx="9.5" cy="9.5" r="2.75" fill="white" stroke="#1699E2" stroke-width="1.5" stroke-linecap="round" stroke-linejoin="round"/>
<circle cx="16.5" cy="11.5" r="1.75" fill="white" stroke="#1699E2" stroke-width="1.5" stroke-linecap="round" stroke-linejoin="round"/>
<path d="M12.4274 17.5643L13.1672 17.441V17.441L12.4274 17.5643ZM12.2602 21.1233C12.3283 21.5319 12.7147 21.8079 13.1233 21.7398C13.5319 21.6717 13.8079 21.2853 13.7398 20.8767L12.2602 21.1233ZM6.13863 17.8758L6.8744 18.0212L6.13863 17.8758ZM5.27239 18.3181L5.09049 19.0457L6.54571 19.4095L6.72761 18.6819L5.27239 18.3181ZM11.6876 17.6876L12.2602 21.1233L13.7398 20.8767L13.1672 17.441L11.6876 17.6876ZM5.40285 17.7304C5.36316 17.9313 5.31974 18.1287 5.27239 18.3181L6.72761 18.6819C6.78196 18.4645 6.8307 18.2424 6.8744 18.0212L5.40285 17.7304ZM9.40033 14.25C7.3532 14.25 5.77516 15.8462 5.40285 17.7304L6.8744 18.0212C7.1331 16.712 8.19225 15.75 9.40033 15.75V14.25ZM9.40033 15.75C10.5339 15.75 11.5012 16.5695 11.6876 17.6876L13.1672 17.441C12.8603 15.5996 11.2671 14.25 9.40033 14.25V15.75Z" fill="#1699E2"/>
<path d="M13 21L13.7088 18.3C14.0645 16.9448 15.2893 16 16.6904 16V16C17.6 16 18.4631 16.4017 19.0488 17.0976L19.3875 17.5" stroke="#1699E2" stroke-width="1.5" stroke-linecap="round" stroke-linejoin="round"/>
<circle cx="12" cy="12" r="9.25" stroke="#1699E2" stroke-width="1.5" stroke-linecap="round" stroke-linejoin="round"/>
</svg>
