<svg width="20" height="20" viewBox="0 0 20 20" fill="none" xmlns="http://www.w3.org/2000/svg">
<path d="M13.9164 8.99733C13.8871 8.97559 13.8562 8.95602 13.824 8.93879L9.19561 6.46107C8.36652 5.89844 7.25 6.5059 7.25 7.5V12.5C7.25 13.4941 8.36653 14.1016 9.19561 13.5389L13.824 11.0612C13.8562 11.044 13.8871 11.0244 13.9164 11.0027C14.5912 10.5028 14.5912 9.49716 13.9164 8.99733ZM0.75 10C0.75 4.89421 4.89421 0.75 10 0.75C15.1058 0.75 19.25 4.89421 19.25 10C19.25 15.1058 15.1058 19.25 10 19.25C4.89421 19.25 0.75 15.1058 0.75 10Z" stroke="#1699E2" stroke-width="1.5" stroke-linecap="round" stroke-linejoin="round"/>
</svg>
