<svg width="24" height="24" viewBox="0 0 24 24" fill="none" xmlns="http://www.w3.org/2000/svg">
<path d="M3 6C3 4.89543 3.89641 4 5.00098 4C10.1984 4 13.8016 4 18.999 4C20.1036 4 21 4.89543 21 6V15.7143C21 16.8189 20.1046 17.7143 19 17.7143H7.33684C7.0112 17.7143 6.70102 17.8532 6.48418 18.0962L4.74607 20.0436C4.13445 20.7289 3 20.2963 3 19.3778V6Z" stroke="#1699E2" stroke-width="1.5" stroke-linecap="round" stroke-linejoin="round"/>
<path d="M11.8135 7.12982C11.8776 6.95673 12.1224 6.95673 12.1865 7.12982L13.1497 9.73286C13.1698 9.78728 13.2127 9.83019 13.2671 9.85032L15.8702 10.8135C16.0433 10.8776 16.0433 11.1224 15.8702 11.1865L13.2671 12.1497C13.2127 12.1698 13.1698 12.2127 13.1497 12.2671L12.1865 14.8702C12.1224 15.0433 11.8776 15.0433 11.8135 14.8702L10.8503 12.2671C10.8302 12.2127 10.7873 12.1698 10.7329 12.1497L8.12982 11.1865C7.95673 11.1224 7.95673 10.8776 8.12982 10.8135L10.7329 9.85032C10.7873 9.83019 10.8302 9.78728 10.8503 9.73286L11.8135 7.12982Z" fill="#1699E2"/>
</svg>
