<svg width="24" height="24" viewBox="0 0 24 24" fill="none" xmlns="http://www.w3.org/2000/svg">
<path d="M17.8425 13.5575C18.555 11.93 18.555 10.0625 17.8425 8.4425L15.7875 9.3725C16.2375 10.4075 16.2375 11.585 15.795 12.6275L17.8425 13.5575ZM14.565 5.1575C12.9375 4.445 11.07 4.445 9.4425 5.1575L10.3725 7.205C11.415 6.7625 12.5925 6.7625 13.635 7.2125L14.565 5.1575ZM6.1575 8.435C5.445 10.07 5.445 11.93 6.1575 13.565L8.2125 12.6275C7.7625 11.5925 7.7625 10.4075 8.2125 9.365L6.1575 8.435ZM9.4425 16.8425C11.07 17.555 12.9375 17.555 14.565 16.835L13.635 14.7875C12.6 15.2375 11.415 15.2375 10.38 14.795L9.4425 16.8425ZM12 3.5C12.9849 3.5 13.9602 3.69399 14.8701 4.0709C15.7801 4.44781 16.6069 5.00026 17.3033 5.6967C17.9997 6.39314 18.5522 7.21993 18.9291 8.12987C19.306 9.03982 19.5 10.0151 19.5 11C19.5 12.9891 18.7098 14.8968 17.3033 16.3033C15.8968 17.7098 13.9891 18.5 12 18.5C11.0151 18.5 10.0398 18.306 9.12987 17.9291C8.21993 17.5522 7.39314 16.9997 6.6967 16.3033C5.29018 14.8968 4.5 12.9891 4.5 11C4.5 9.01088 5.29018 7.10322 6.6967 5.6967C8.10322 4.29018 10.0109 3.5 12 3.5V3.5ZM12 8C11.2044 8 10.4413 8.31607 9.87868 8.87868C9.31607 9.44129 9 10.2044 9 11C9 11.7956 9.31607 12.5587 9.87868 13.1213C10.4413 13.6839 11.2044 14 12 14C12.7956 14 13.5587 13.6839 14.1213 13.1213C14.6839 12.5587 15 11.7956 15 11C15 10.2044 14.6839 9.44129 14.1213 8.87868C13.5587 8.31607 12.7956 8 12 8V8Z" fill="#0B5599"/>
</svg>
