<svg width="24" height="24" viewBox="0 0 24 24" fill="none" xmlns="http://www.w3.org/2000/svg">
<path d="M17.25 16H6.75V7.75H17.25V16ZM15 2.5V4H9V2.5H7.5V4H6.75C6.35218 4 5.97064 4.15804 5.68934 4.43934C5.40804 4.72064 5.25 5.10218 5.25 5.5V16C5.25 16.3978 5.40804 16.7794 5.68934 17.0607C5.97064 17.342 6.35218 17.5 6.75 17.5H17.25C17.6478 17.5 18.0294 17.342 18.3107 17.0607C18.592 16.7794 18.75 16.3978 18.75 16V5.5C18.75 5.10218 18.592 4.72064 18.3107 4.43934C18.0294 4.15804 17.6478 4 17.25 4H16.5V2.5H15ZM11.16 10.75H8.4525L10.6425 12.3325L9.81 14.92L12 13.3225L14.19 14.92L13.35 12.34L15.54 10.75H12.84L12 8.17L11.16 10.75Z" fill="#0B5599"/>
</svg>
