<svg width="24" height="24" viewBox="0 0 24 24" fill="none" xmlns="http://www.w3.org/2000/svg">
<g clip-path="url(#clip0_7720_66502)">
<path d="M7.85842 3.06668C6.79442 3.11437 6.06782 3.27568 5.43262 3.5128C4.77522 3.75619 4.21802 4.0828 3.66362 4.61138C3.10922 5.13996 2.76782 5.66968 2.51342 6.29516C2.26722 6.89993 2.10042 7.59078 2.05342 8.60214C2.00642 9.61351 1.99602 9.9386 2.00122 12.5184C2.00642 15.0982 2.01842 15.4216 2.07002 16.4351C2.12082 17.4457 2.29002 18.1358 2.53962 18.7394C2.79622 19.3639 3.13962 19.8931 3.69622 20.42C4.25282 20.9468 4.81002 21.2704 5.47002 21.5125C6.10602 21.746 6.83342 21.9052 7.89782 21.9495C8.96222 21.9937 9.30482 22.004 12.0196 21.999C14.7344 21.9941 15.0762 21.9827 16.1428 21.9346C17.2094 21.8866 17.932 21.7247 18.5676 21.4887C19.225 21.2444 19.7824 20.9187 20.3366 20.3897C20.8908 19.8608 21.232 19.3307 21.4862 18.7048C21.7326 18.1006 21.9 17.4096 21.9462 16.3992C21.9928 15.3851 22.0038 15.0614 21.9986 12.4819C21.9934 9.9025 21.9812 9.57912 21.9306 8.56604C21.88 7.55296 21.7106 6.86497 21.4612 6.26096C21.2042 5.63643 20.8612 5.10766 20.3048 4.58041C19.7484 4.05316 19.19 3.72921 18.5314 3.48829C17.895 3.2544 17.168 3.09499 16.1036 3.05129C15.0392 3.00759 14.6966 2.99638 11.9808 3.00132C9.26502 3.00626 8.92502 3.01728 7.85842 3.06668ZM7.97522 20.2404C7.00022 20.2001 6.47082 20.0462 6.11802 19.9174C5.65082 19.7464 5.31802 19.5397 4.96642 19.2089C4.61482 18.8781 4.39882 18.5608 4.21642 18.1179C4.07942 17.7828 3.91442 17.2804 3.86882 16.3541C3.81922 15.353 3.80882 15.0525 3.80302 12.5161C3.79722 9.97983 3.80742 9.67963 3.85362 8.67814C3.89522 7.75266 4.05822 7.24916 4.19362 6.91418C4.37362 6.46977 4.59042 6.15418 4.93942 5.82035C5.28842 5.48652 5.62142 5.28094 6.08802 5.10766C6.44042 4.97694 6.96922 4.82152 7.94382 4.77744C8.99842 4.72994 9.31442 4.72044 11.9838 4.71493C14.6532 4.70942 14.97 4.71892 16.025 4.763C16.9992 4.80328 17.5294 4.95661 17.8816 5.086C18.349 5.257 18.6816 5.46239 19.033 5.79452C19.3844 6.12664 19.601 6.44184 19.7834 6.88607C19.9212 7.21989 20.0848 7.72206 20.1308 8.6485C20.181 9.65037 20.1924 9.95076 20.1972 12.4865C20.202 15.0222 20.1926 15.3234 20.1464 16.3245C20.1038 17.2508 19.9422 17.7539 19.8064 18.0894C19.6264 18.5331 19.4094 18.8494 19.0602 19.1831C18.711 19.5167 18.3784 19.7223 17.9116 19.8956C17.5596 20.0261 17.0302 20.1819 16.0564 20.226C15.0018 20.2731 14.6858 20.283 12.0154 20.2885C9.34502 20.294 9.03002 20.2837 7.97542 20.2404M16.1274 7.42281C16.1278 7.6483 16.1986 7.86861 16.3308 8.05588C16.463 8.24315 16.6507 8.38897 16.8701 8.4749C17.0896 8.56082 17.3309 8.58299 17.5636 8.53861C17.7963 8.49422 18.01 8.38527 18.1775 8.22553C18.345 8.0658 18.4589 7.86245 18.5048 7.64122C18.5507 7.41998 18.5264 7.19079 18.4352 6.98264C18.3439 6.77448 18.1898 6.59671 17.9921 6.4718C17.7945 6.34689 17.5624 6.28046 17.325 6.28091C17.0068 6.28152 16.7019 6.40215 16.4773 6.61629C16.2527 6.83043 16.1269 7.12053 16.1274 7.42281ZM6.86542 12.5097C6.87102 15.2039 9.17422 17.383 12.0096 17.3779C14.845 17.3727 17.1404 15.1849 17.135 12.4907C17.1296 9.79648 14.8258 7.6168 11.99 7.62212C9.15422 7.62744 6.86002 9.81587 6.86542 12.5097ZM8.66662 12.5063C8.66531 11.8799 8.85954 11.2673 9.22473 10.7459C9.58992 10.2244 10.1097 9.81755 10.7183 9.57673C11.3269 9.3359 11.997 9.27193 12.6438 9.3929C13.2907 9.51387 13.8853 9.81436 14.3524 10.2564C14.8195 10.6984 15.1382 11.262 15.2681 11.8761C15.398 12.4901 15.3333 13.1269 15.0822 13.7061C14.8311 14.2852 14.4049 14.7806 13.8574 15.1295C13.31 15.4785 12.6659 15.6655 12.0066 15.6667C11.5689 15.6676 11.1352 15.5865 10.7304 15.4282C10.3256 15.2698 9.95765 15.0372 9.64749 14.7438C9.33734 14.4503 9.09107 14.1016 8.92277 13.7177C8.75447 13.3338 8.66743 12.9221 8.66662 12.5063Z" fill="#4F6C86"/>
</g>
<defs>
<clipPath id="clip0_7720_66502">
<rect width="20" height="19" fill="white" transform="translate(2 3)"/>
</clipPath>
</defs>
</svg>
