<svg width="34" height="34" viewBox="0 0 34 34" fill="none" xmlns="http://www.w3.org/2000/svg">
<path d="M29.6853 0.6875C30.6467 0.6875 31.5687 1.06942 32.2486 1.74924C32.9284 2.42906 33.3103 3.35109 33.3103 4.3125V29.6875C33.3103 30.6489 32.9284 31.5709 32.2486 32.2508C31.5687 32.9306 30.6467 33.3125 29.6853 33.3125H4.3103C3.34889 33.3125 2.42686 32.9306 1.74704 32.2508C1.06722 31.5709 0.685303 30.6489 0.685303 29.6875V4.3125C0.685303 3.35109 1.06722 2.42906 1.74704 1.74924C2.42686 1.06942 3.34889 0.6875 4.3103 0.6875H29.6853ZM28.779 28.7812V19.175C28.779 17.6079 28.1565 16.105 27.0484 14.9969C25.9403 13.8888 24.4374 13.2662 22.8703 13.2662C21.3297 13.2662 19.5353 14.2087 18.6653 15.6225V13.6106H13.6084V28.7812H18.6653V19.8456C18.6653 18.45 19.7891 17.3081 21.1847 17.3081C21.8577 17.3081 22.5031 17.5755 22.979 18.0513C23.4548 18.5272 23.7222 19.1726 23.7222 19.8456V28.7812H28.779ZM7.7178 10.765C8.52539 10.765 9.29989 10.4442 9.87094 9.87314C10.442 9.30209 10.7628 8.52758 10.7628 7.72C10.7628 6.03437 9.40343 4.65687 7.7178 4.65687C6.90541 4.65687 6.12629 4.9796 5.55185 5.55404C4.9774 6.12849 4.65468 6.90761 4.65468 7.72C4.65468 9.40562 6.03218 10.765 7.7178 10.765ZM10.2372 28.7812V13.6106H5.21655V28.7812H10.2372Z" fill="#2F72AC"/>
</svg>
