<svg width="24" height="24" viewBox="0 0 24 24" fill="none" xmlns="http://www.w3.org/2000/svg">
<path d="M19.1889 19.1893H16.3737V14.7804C16.3737 13.7291 16.3549 12.3757 14.9095 12.3757C13.4432 12.3757 13.2189 13.5211 13.2189 14.7039V19.189H10.4037V10.1225H13.1063V11.3616H13.1441C13.4146 10.8991 13.8054 10.5187 14.275 10.2608C14.7446 10.0029 15.2753 9.87715 15.8107 9.89702C18.664 9.89702 19.1901 11.7739 19.1901 14.2156L19.1889 19.1893ZM7.2272 8.88322C6.90409 8.88328 6.5882 8.78752 6.31951 8.60805C6.05082 8.42858 5.84139 8.17346 5.71769 7.87495C5.59398 7.57644 5.56156 7.24795 5.62454 6.93103C5.68752 6.6141 5.84307 6.32296 6.07151 6.09444C6.29994 5.86591 6.59102 5.71026 6.90791 5.64716C7.22481 5.58407 7.55329 5.61636 7.85183 5.73996C8.15037 5.86356 8.40556 6.07292 8.58512 6.34156C8.76468 6.61019 8.86055 6.92605 8.86061 7.24917C8.86065 7.46372 8.81843 7.67618 8.73636 7.87441C8.6543 8.07264 8.534 8.25276 8.38233 8.4045C8.23065 8.55623 8.05056 8.67661 7.85237 8.75875C7.65417 8.84089 7.44174 8.88318 7.2272 8.88322ZM8.6348 19.1893H5.81667V10.1225H8.6348V19.1893ZM20.5924 3.00129H4.40203C4.03456 2.99715 3.68045 3.13907 3.41756 3.39587C3.15466 3.65267 3.00448 4.00334 3 4.37082V20.6289C3.00433 20.9966 3.15442 21.3475 3.41731 21.6045C3.68019 21.8616 4.03438 22.0038 4.40203 21.9999H20.5924C20.9608 22.0045 21.316 21.8627 21.5799 21.6057C21.8438 21.3486 21.9949 20.9973 22 20.6289V4.36965C21.9947 4.00144 21.8435 3.65037 21.5796 3.39357C21.3157 3.13678 20.9606 2.99526 20.5924 3.00012" fill="#4F6C86"/>
</svg>
