<svg width="38" height="34" viewBox="0 0 38 34" fill="none" xmlns="http://www.w3.org/2000/svg">
<path fill-rule="evenodd" clip-rule="evenodd" d="M2.33036 0.6875H34.9554C36.2417 0.6875 37.2857 1.73383 37.2857 3.01786V15.8348C37.2857 25.4732 29.4464 33.3125 19.808 33.3125H17.4777C7.83932 33.3125 0 25.4732 0 15.8348V3.01786C0 1.73383 1.04633 0.6875 2.33036 0.6875ZM16.9954 23.3082C17.4498 23.7626 18.0463 23.9909 18.6429 23.9909C19.2394 23.9909 19.836 23.7626 20.2904 23.3082L29.6113 13.9871C30.5225 13.076 30.5225 11.6033 29.6113 10.6922C28.7002 9.78102 27.2275 9.78102 26.3164 10.6922L18.6429 18.3657L10.9694 10.6922C10.0583 9.78102 8.58557 9.78102 7.67445 10.6922C6.76332 11.6033 6.76332 13.076 7.67445 13.9871L16.9954 23.3082Z" fill="#A8A8A8"/>
</svg>
