<svg width="38" height="34" viewBox="0 0 38 34" fill="none" xmlns="http://www.w3.org/2000/svg">
<path fill-rule="evenodd" clip-rule="evenodd" d="M2.64286 0.6875H35.2679C36.5542 0.6875 37.5982 1.73383 37.5982 3.01786V15.8348C37.5982 25.4732 29.7589 33.3125 20.1205 33.3125H17.7902C8.15182 33.3125 0.3125 25.4732 0.3125 15.8348V3.01786C0.3125 1.73383 1.35883 0.6875 2.64286 0.6875ZM17.3079 23.3082C17.7623 23.7626 18.3588 23.9909 18.9554 23.9909C19.5519 23.9909 20.1485 23.7626 20.6029 23.3082L29.9238 13.9871C30.835 13.076 30.835 11.6033 29.9238 10.6922C29.0127 9.78102 27.54 9.78102 26.6289 10.6922L18.9554 18.3657L11.2819 10.6922C10.3708 9.78102 8.89807 9.78102 7.98695 10.6922C7.07582 11.6033 7.07582 13.076 7.98695 13.9871L17.3079 23.3082Z" fill="#D64D57"/>
</svg>
