<svg width="24" height="18" viewBox="0 0 24 18" fill="none" xmlns="http://www.w3.org/2000/svg">
<path d="M23.3684 14.6846C23.3684 16.0798 22.2373 17.2109 20.8421 17.2109H3.15791C1.76275 17.2109 0.631592 16.0798 0.631592 14.6846V3.3162C0.631592 1.92104 1.76275 0.789886 3.15791 0.789886H20.8421C22.2373 0.789886 23.3684 1.92104 23.3684 3.3162V14.6846Z" fill="#DD2E44"/>
<path d="M23.3684 12.7891H0.631592V5.21012H23.3684V12.7891Z" fill="#FFCC4D"/>
<path d="M6.31592 8.36873V10.2635C6.31592 11.31 7.16413 12.1582 8.21065 12.1582C9.25718 12.1582 10.1054 11.31 10.1054 10.2635V8.36873H6.31592Z" fill="#EA596E"/>
<path d="M8.21045 9.63281H10.1052V7.73808H8.21045V9.63281Z" fill="#F4A2B2"/>
<path d="M8.21065 9.63281H6.31592V7.73808H8.21065V9.63281Z" fill="#DD2E44"/>
<path d="M10.1054 6.78896C10.1054 7.31254 9.25718 7.73633 8.21065 7.73633C7.16413 7.73633 6.31592 7.31254 6.31592 6.78896C6.31592 6.26538 7.16413 5.84159 8.21065 5.84159C9.25718 5.84159 10.1054 6.26538 10.1054 6.78896Z" fill="#EA596E"/>
<path d="M10.1054 6.31538C10.1054 6.0539 9.25718 5.84169 8.21065 5.84169C7.16413 5.84169 6.31592 6.0539 6.31592 6.31538C6.31592 6.57685 7.16413 6.78906 8.21065 6.78906C9.25718 6.78906 10.1054 6.57685 10.1054 6.31538Z" fill="#FFAC33"/>
<path d="M5.05273 12.1582H5.68431V7.73715H5.05273V12.1582ZM11.3685 12.1582H10.7369V7.73715H11.3685V12.1582Z" fill="#99AAB5"/>
<path d="M6.31588 12.1582H4.42114V11.5266H6.31588V12.1582ZM12.0001 12.1582H10.1054V11.5266H12.0001V12.1582ZM5.6843 7.73715H5.05272V7.10557H5.6843V7.73715ZM11.3685 7.73715H10.7369V7.10557H11.3685V7.73715Z" fill="#66757F"/>
</svg>
