<svg width="41" height="34" viewBox="0 0 41 34" fill="none" xmlns="http://www.w3.org/2000/svg">
<path d="M40.5603 4.52573C39.0696 5.19743 37.4628 5.63882 35.7979 5.84993C37.5015 4.83279 38.818 3.22073 39.4375 1.28243C37.8306 2.24199 36.0495 2.91368 34.1717 3.2975C32.6423 1.64706 30.4934 0.6875 28.0541 0.6875C23.5046 0.6875 19.7876 4.37221 19.7876 8.92051C19.7876 9.57301 19.865 10.2063 20.0006 10.8012C13.1086 10.4558 6.97163 7.17412 2.88678 2.2036C2.17048 3.41265 1.76394 4.83279 1.76394 6.32971C1.76394 9.18919 3.2159 11.7224 5.46159 13.1618C4.08707 13.1618 2.80935 12.7779 1.6865 12.2022C1.6865 12.2022 1.6865 12.2022 1.6865 12.2598C1.6865 16.2515 4.5517 19.5908 8.34615 20.3393C7.64921 20.5312 6.91355 20.6271 6.15853 20.6271C5.63583 20.6271 5.11312 20.5696 4.60978 20.4736C5.65519 23.7169 8.69462 26.135 12.3536 26.1926C9.52708 28.4187 5.94558 29.7237 2.03497 29.7237C1.37675 29.7237 0.718525 29.6854 0.0603027 29.6086C3.7386 31.9499 8.11384 33.3125 12.7988 33.3125C28.0541 33.3125 36.4367 20.7615 36.4367 9.88007C36.4367 9.51544 36.4367 9.17 36.4174 8.80537C38.0436 7.6539 39.4375 6.19537 40.5603 4.52573Z" fill="#4BA0EB"/>
</svg>
