<svg width="24" height="24" viewBox="0 0 24 24" fill="none" xmlns="http://www.w3.org/2000/svg">
<g clip-path="url(#clip0_7720_66518)">
<path d="M19.8991 8.27414C19.9112 8.45497 19.9112 8.63581 19.9112 8.81831C19.9112 14.3791 15.8144 20.7925 8.32331 20.7925V20.7891C6.11041 20.7925 3.94347 20.1375 2.08057 18.9025C2.40234 18.9425 2.72573 18.9625 3.04992 18.9633C4.88379 18.965 6.66524 18.3291 8.10799 17.1583C6.36524 17.1241 4.83702 15.95 4.30315 14.2358C4.91363 14.3575 5.54266 14.3325 6.14186 14.1633C4.24186 13.7666 2.87492 12.0416 2.87492 10.0383C2.87492 10.02 2.87492 10.0025 2.87492 9.98497C3.44105 10.3108 4.07492 10.4916 4.72331 10.5116C2.93379 9.27581 2.38218 6.81581 3.46282 4.89247C5.53057 7.52164 8.58137 9.11997 11.8564 9.28914C11.5281 7.82747 11.9765 6.29581 13.0346 5.26831C14.6749 3.67497 17.2548 3.75664 18.7967 5.45081C19.7088 5.26497 20.583 4.91914 21.383 4.42914C21.079 5.40331 20.4427 6.23081 19.5927 6.75664C20.3999 6.65831 21.1886 6.43497 21.9314 6.09414C21.3846 6.94081 20.6959 7.67831 19.8991 8.27414Z" fill="#4F6C86"/>
</g>
<defs>
<clipPath id="clip0_7720_66518">
<rect width="20" height="17" fill="white" transform="translate(2 4)"/>
</clipPath>
</defs>
</svg>
