<svg width="24" height="20" viewBox="0 0 24 20" fill="none" xmlns="http://www.w3.org/2000/svg">
<path d="M7.57758 19.9168C16.5744 19.9168 21.4944 12.286 21.4944 5.66888C21.4944 5.45214 21.4901 5.23638 21.4806 5.0216C22.4356 4.31475 23.2657 3.43267 23.9204 2.42854C23.044 2.82736 22.1009 3.09584 21.1115 3.2169C22.1214 2.59695 22.8966 1.61626 23.2624 0.447167C22.3174 1.02075 21.2708 1.43763 20.1565 1.6627C19.2639 0.689356 17.9932 0.0805664 16.5862 0.0805664C13.885 0.0805664 11.6946 2.32317 11.6946 5.08749C11.6946 5.48044 11.7376 5.86267 11.8215 6.2293C7.75628 6.01988 4.15156 4.02725 1.73908 0.997311C1.31902 1.73734 1.0768 2.59697 1.0768 3.51421C1.0768 5.25154 1.94032 6.78527 3.25344 7.68252C2.45096 7.65714 1.69712 7.4316 1.03824 7.05622C1.03752 7.07723 1.03752 7.09771 1.03752 7.12017C1.03752 9.54533 2.72352 11.5701 4.9616 12.029C4.55059 12.1437 4.11816 12.2052 3.67184 12.2052C3.35715 12.2052 3.05056 12.1735 2.75256 12.1149C3.37526 14.1046 5.18096 15.5525 7.32176 15.5929C5.64768 16.9363 3.5388 17.7364 1.2468 17.7364C0.852482 17.7364 0.462934 17.7134 0.0800781 17.6671C2.2448 19.0876 4.8152 19.9165 7.57784 19.9165" fill="#74818A"/>
</svg>
