<svg fill="none" height="20" viewBox="0 0 24 20" width="24" xmlns="http://www.w3.org/2000/svg"><path d="m24 2.29446c-.8834.40152-1.8356.66539-2.8222.79158 1.0096-.60803 1.7897-1.5717 2.1568-2.730399-.9522.573613-2.0076.975139-3.1205 1.204589-.9063-.986616-2.1797-1.56023-3.6252-1.56023-2.696 0-4.8987 2.20268-4.8987 4.92161 0 .39005.0459.76864.1262 1.12428-4.08409-.2065-7.7208-2.16826-10.14145-5.13958-.42447.72275-.66539 1.5717-.66539 2.46654 0 1.70937.86042 3.22371 2.19121 4.08413-.81454 0-1.57171-.22945-2.237099-.57361v.03441c0 2.38624 1.697899 4.38242 3.946459 4.82982-.413.1147-.84894.1721-1.29636.1721-.30975 0-.61951-.0344-.91778-.0918.6195 1.9388 2.42065 3.3843 4.58891 3.4188-1.67496 1.3307-3.79733 2.1109-6.11473 2.1109-.390055 0-.780113-.023-1.17017-.0689 2.17973 1.3996 4.77247 2.2142 7.54876 2.2142 9.04014 0 14.00764-7.5029 14.00764-14.00768 0-.21797 0-.42447-.0115-.64245.9637-.68833 1.7897-1.56023 2.4551-2.55831z" fill="#717780"/></svg>