<svg width="24" height="24" viewBox="0 0 24 24" fill="none" xmlns="http://www.w3.org/2000/svg">
<path d="M7.4975 21.8362C16.4943 21.8362 21.4143 14.2055 21.4143 7.58831C21.4143 7.37157 21.41 7.15581 21.4005 6.94103C22.3555 6.23419 23.1856 5.35211 23.8403 4.34797C22.9639 4.74679 22.0208 5.01527 21.0314 5.13633C22.0413 4.51638 22.8166 3.53569 23.1823 2.3666C22.2373 2.94018 21.1907 3.35706 20.0764 3.58213C19.1839 2.60879 17.9131 2 16.5061 2C13.805 2 11.6146 4.2426 11.6146 7.00692C11.6146 7.39988 11.6575 7.7821 11.7414 8.14874C7.6762 7.93932 4.07148 5.94668 1.659 2.91674C1.23894 3.65677 0.996724 4.5164 0.996724 5.43364C0.996724 7.17098 1.86024 8.7047 3.17336 9.60195C2.37088 9.57657 1.61704 9.35104 0.958164 8.97565C0.957444 8.99666 0.957441 9.01715 0.957441 9.0396C0.957441 11.4648 2.64344 13.4896 4.88152 13.9484C4.47052 14.0631 4.03808 14.1246 3.59176 14.1246C3.27707 14.1246 2.97048 14.0929 2.67248 14.0343C3.29518 16.024 5.10088 17.4719 7.24168 17.5123C5.5676 18.8557 3.45872 19.6558 1.16672 19.6558C0.772404 19.6558 0.382856 19.6329 0 19.5865C2.16472 21.0071 4.73512 21.8359 7.49776 21.8359" fill="#74818A"/>
</svg>
