<svg width="23" height="17" viewBox="0 0 23 17" fill="none" xmlns="http://www.w3.org/2000/svg">
<mask id="mask0_2256:41000" style="mask-type:alpha" maskUnits="userSpaceOnUse" x="0" y="0" width="23" height="17">
<path d="M22.7368 13.8956C22.7368 15.2907 21.6057 16.4219 20.2105 16.4219H2.52632C1.13116 16.4219 0 15.2907 0 13.8956V2.52714C0 1.13198 1.13116 0.000823975 2.52632 0.000823975H20.2105C21.6057 0.000823975 22.7368 1.13198 22.7368 2.52714V13.8956Z" fill="#DD2E44"/>
</mask>
<g mask="url(#mask0_2256:41000)">
<path d="M-6 0V17H28V0H-6Z" fill="#012169"/>
<path d="M-6 0L28 17L-6 0ZM28 0L-6 17L28 0Z" fill="black"/>
<path d="M28 0L-6 17M-6 0L28 17L-6 0Z" stroke="white" stroke-width="3.4"/>
<path d="M-6 0L28 17L-6 0ZM28 0L-6 17L28 0Z" fill="black"/>
<path d="M28 0L-6 17M-6 0L28 17L-6 0Z" stroke="#C8102E" stroke-width="2.26667"/>
<path d="M11 0V17V0ZM-6 8.5H28H-6Z" fill="black"/>
<path d="M-6 8.5H28M11 0V17V0Z" stroke="white" stroke-width="5.66667"/>
<path d="M11 0V17V0ZM-6 8.5H28H-6Z" fill="black"/>
<path d="M-6 8.5H28M11 0V17V0Z" stroke="#C8102E" stroke-width="3.4"/>
<path d="M1.30229 0H22.4183C23.1361 0 23.7206 0.584526 23.7206 1.30229V15.1977C23.7206 15.9155 23.1361 16.5 22.4183 16.5H1.30229C0.584526 16.5043 0 15.9197 0 15.202V1.30229C0 0.584526 0.584526 0 1.30229 0Z" fill="#B22234"/>
<path d="M0.00859598 1.17383H23.7206C23.7249 1.21681 23.7292 1.25979 23.7292 1.30707V2.57067H0V1.30277C0 1.25979 0.00429799 1.21681 0.00859598 1.17383ZM23.7249 3.72683V5.11938H0V3.72683H23.7249ZM23.7249 6.27984V7.67239H0V6.27984H23.7249V6.27984ZM23.7249 8.83284V10.2254H0V8.83284H23.7249V8.83284ZM23.7249 11.3858V12.7784H0V11.3858H23.7249V11.3858ZM23.7249 13.9389V15.1982C23.7249 15.2411 23.7206 15.2884 23.7163 15.3314H0.00859598C0.00429799 15.2927 0 15.2454 0 15.2025V13.9432H23.7249V13.9389Z" fill="white"/>
<path d="M8.93982 0V8.88824H0V1.30229C0 0.584526 0.584526 0 1.30229 0H8.93982Z" fill="#3C3B6E"/>
<path d="M0.528641 1.22852L0.825203 2.15258L0.0429688 1.58095H1.01431L0.227782 2.15258L0.528641 1.22852Z" fill="white"/>
<path d="M0.528641 3.01758L0.825203 3.94165L0.0429688 3.37001H1.01431L0.227782 3.94165L0.528641 3.01758Z" fill="white"/>
<path d="M0.528641 4.80664L0.825203 5.73071L0.0429688 5.15908H1.01431L0.227782 5.73071L0.528641 4.80664Z" fill="white"/>
<path d="M0.528641 6.59375L0.825203 7.51782L0.0429688 6.94618H1.01431L0.227782 7.51782L0.528641 6.59375Z" fill="white"/>
<path d="M1.57747 0.335938L1.87833 1.26001L1.0918 0.688373H2.06744L1.27661 1.26001L1.57747 0.335938Z" fill="white"/>
<path d="M1.57747 2.12305L1.87833 3.04711L1.0918 2.47548H2.06744L1.27661 3.04711L1.57747 2.12305Z" fill="white"/>
<path d="M1.57747 3.91016L1.87833 4.83422L1.0918 4.26259H2.06744L1.27661 4.83422L1.57747 3.91016Z" fill="white"/>
<path d="M1.57747 5.69922L1.87833 6.62329L1.0918 6.05165H2.06744L1.27661 6.62329L1.57747 5.69922Z" fill="white"/>
<path d="M1.57747 7.48633L1.87833 8.4104L1.0918 7.83876H2.06744L1.27661 8.4104L1.57747 7.48633Z" fill="white"/>
<path d="M2.6302 1.22852L2.93106 2.15258L2.14453 1.58095H3.11588L2.32934 2.15258L2.6302 1.22852Z" fill="white"/>
<path d="M2.6302 3.01758L2.93106 3.94165L2.14453 3.37001H3.11588L2.32934 3.94165L2.6302 3.01758Z" fill="white"/>
<path d="M2.6302 4.80664L2.93106 5.73071L2.14453 5.15908H3.11588L2.32934 5.73071L2.6302 4.80664Z" fill="white"/>
<path d="M2.6302 6.59375L2.93106 7.51782L2.14453 6.94618H3.11588L2.32934 7.51782L2.6302 6.59375Z" fill="white"/>
<path d="M3.68294 0.335938L3.9795 1.26001L3.19727 0.688373H4.16861L3.38208 1.26001L3.68294 0.335938Z" fill="white"/>
<path d="M3.68294 2.12305L3.9795 3.04711L3.19727 2.47548H4.16861L3.38208 3.04711L3.68294 2.12305Z" fill="white"/>
<path d="M3.68294 3.91016L3.9795 4.83422L3.19727 4.26259H4.16861L3.38208 4.83422L3.68294 3.91016Z" fill="white"/>
<path d="M3.68294 5.69922L3.9795 6.62329L3.19727 6.05165H4.16861L3.38208 6.62329L3.68294 5.69922Z" fill="white"/>
<path d="M3.68294 7.48633L3.9795 8.4104L3.19727 7.83876H4.16861L3.38208 8.4104L3.68294 7.48633Z" fill="white"/>
<path d="M4.73225 1.22852L5.03311 2.15258L4.24658 1.58095H5.21793L4.4314 2.15258L4.73225 1.22852Z" fill="white"/>
<path d="M4.73225 3.01758L5.03311 3.94165L4.24658 3.37001H5.21793L4.4314 3.94165L4.73225 3.01758Z" fill="white"/>
<path d="M4.73225 4.80664L5.03311 5.73071L4.24658 5.15908H5.21793L4.4314 5.73071L4.73225 4.80664Z" fill="white"/>
<path d="M4.73225 6.59375L5.03311 7.51782L4.24658 6.94618H5.21793L4.4314 7.51782L4.73225 6.59375Z" fill="white"/>
<path d="M5.78548 0.335938L6.08634 1.26001L5.2998 0.688373H6.27115L5.48462 1.26001L5.78548 0.335938Z" fill="white"/>
<path d="M5.78548 2.12305L6.08634 3.04711L5.2998 2.47548H6.27115L5.48462 3.04711L5.78548 2.12305Z" fill="white"/>
<path d="M5.78548 3.91016L6.08634 4.83422L5.2998 4.26259H6.27115L5.48462 4.83422L5.78548 3.91016Z" fill="white"/>
<path d="M5.78548 5.69922L6.08634 6.62329L5.2998 6.05165H6.27115L5.48462 6.62329L5.78548 5.69922Z" fill="white"/>
<path d="M5.78548 7.48633L6.08634 8.4104L5.2998 7.83876H6.27115L5.48462 8.4104L5.78548 7.48633Z" fill="white"/>
<path d="M6.83382 1.22852L7.13468 2.15258L6.34814 1.58095H7.31949L6.53726 2.15258L6.83382 1.22852Z" fill="white"/>
<path d="M6.83382 3.01758L7.13468 3.94165L6.34814 3.37001H7.31949L6.53726 3.94165L6.83382 3.01758Z" fill="white"/>
<path d="M6.83382 4.80664L7.13468 5.73071L6.34814 5.15908H7.31949L6.53726 5.73071L6.83382 4.80664Z" fill="white"/>
<path d="M6.83382 6.59375L7.13468 7.51782L6.34814 6.94618H7.31949L6.53726 7.51782L6.83382 6.59375Z" fill="white"/>
<path d="M7.88655 0.335938L8.18741 1.26001L7.40088 0.688373H8.37223L7.58569 1.26001L7.88655 0.335938Z" fill="white"/>
<path d="M7.88655 2.12305L8.18741 3.04711L7.40088 2.47548H8.37223L7.58569 3.04711L7.88655 2.12305Z" fill="white"/>
<path d="M7.88655 3.91016L8.18741 4.83422L7.40088 4.26259H8.37223L7.58569 4.83422L7.88655 3.91016Z" fill="white"/>
<path d="M7.88655 5.69922L8.18741 6.62329L7.40088 6.05165H8.37223L7.58569 6.62329L7.88655 5.69922Z" fill="white"/>
<path d="M7.88655 7.48633L8.18741 8.4104L7.40088 7.83876H8.37223L7.58569 8.4104L7.88655 7.48633Z" fill="white"/>
</g>
</svg>
