<svg width="33" height="34" viewBox="0 0 33 34" fill="none" xmlns="http://www.w3.org/2000/svg">
<path d="M16.753 0.813477H16.7449C7.8201 0.813477 0.5625 8.0731 0.5625 16.9999C0.5625 20.5407 1.70365 23.8225 3.644 26.4872L1.62676 32.5005L7.84843 30.5116C10.4079 32.2071 13.4611 33.1864 16.753 33.1864C25.6778 33.1864 32.9354 25.9247 32.9354 16.9999C32.9354 8.07513 25.6778 0.813477 16.753 0.813477ZM26.1715 23.6708C25.781 24.7735 24.2311 25.688 22.9949 25.9551C22.1492 26.1352 21.0444 26.2788 17.3256 24.7371C12.5688 22.7664 9.50552 17.9327 9.26677 17.6191C9.03813 17.3055 7.34462 15.0596 7.34462 12.7368C7.34462 10.4141 8.52421 9.28304 8.99969 8.79745C9.39019 8.39885 10.0356 8.21676 10.6548 8.21676C10.8551 8.21676 11.0351 8.22687 11.197 8.23497C11.6725 8.2552 11.9112 8.28353 12.2248 9.03417C12.6153 9.97501 13.5663 12.2978 13.6796 12.5365C13.7949 12.7753 13.9103 13.099 13.7484 13.4126C13.5966 13.7363 13.4631 13.88 13.2244 14.1552C12.9856 14.4303 12.759 14.6408 12.5202 14.9362C12.3017 15.1931 12.0549 15.4683 12.3301 15.9438C12.6052 16.4091 13.5562 17.961 14.9563 19.2074C16.7631 20.8159 18.228 21.3298 18.752 21.5483C19.1425 21.7102 19.6079 21.6717 19.8932 21.3683C20.2553 20.9778 20.7025 20.3303 21.1577 19.693C21.4815 19.2357 21.8902 19.179 22.3191 19.3409C22.7562 19.4926 25.0688 20.6358 25.5443 20.8725C26.0197 21.1113 26.3334 21.2246 26.4487 21.4249C26.562 21.6252 26.562 22.566 26.1715 23.6708Z" fill="#58BD54"/>
</svg>
