<svg width="24" height="24" viewBox="0 0 24 24" fill="none" xmlns="http://www.w3.org/2000/svg">
<g clip-path="url(#clip0_7807_66345)">
<path fill-rule="evenodd" clip-rule="evenodd" d="M19.8139 6.38811C20.6744 6.60167 21.352 7.23091 21.582 8.02999C22 9.47826 22 12.5 22 12.5C22 12.5 22 15.5217 21.582 16.9701C21.352 17.7691 20.6744 18.3983 19.8139 18.612C18.2542 19 12 19 12 19C12 19 5.74583 19 4.18612 18.612C3.32564 18.3983 2.6479 17.7691 2.41792 16.9701C2 15.5217 2 12.5 2 12.5C2 12.5 2 9.47826 2.41792 8.02999C2.6479 7.23091 3.32564 6.60167 4.18612 6.38811C5.74583 6 12 6 12 6C12 6 18.2542 6 19.8139 6.38811ZM15.1819 12.5L9.95459 15.2434V9.75641L15.1819 12.5Z" fill="#4F6C86"/>
</g>
<defs>
<clipPath id="clip0_7807_66345">
<rect width="20" height="13" fill="white" transform="translate(2 6)"/>
</clipPath>
</defs>
</svg>
